<svg xmlns="http://www.w3.org/2000/svg" xmlns:xlink="http://www.w3.org/1999/xlink" viewBox="0 0 196.16 104.07"><defs><style>.cls-1{fill:url(#linear-gradient);}.cls-2{fill:url(#linear-gradient-2);}.cls-3{fill:#ea1b2e;}.cls-4{fill:#003964;}.cls-5{fill:#fff;}.cls-6{clip-path:url(#clip-path);}.cls-7{fill:url(#linear-gradient-4);}.cls-8{clip-path:url(#clip-path-2);}.cls-9{fill:url(#linear-gradient-6);}</style><linearGradient id="linear-gradient" x1="38.68" y1="43.88" x2="48.13" y2="53.33" gradientUnits="userSpaceOnUse"><stop offset="0" stop-color="#a06b2a"/><stop offset="0.08" stop-color="#ba8b38"/><stop offset="0.18" stop-color="#ba8b38"/><stop offset="0.27" stop-color="#d4b161"/><stop offset="0.34" stop-color="#f5ec9c"/><stop offset="0.41" stop-color="#fbf7c5"/><stop offset="0.48" stop-color="#f5ec9c"/><stop offset="0.59" stop-color="#d4b161"/><stop offset="0.67" stop-color="#ba8b38"/><stop offset="0.77" stop-color="#b07d30"/><stop offset="0.83" stop-color="#ba8230"/><stop offset="0.88" stop-color="#d6a347"/><stop offset="0.93" stop-color="#e1b455"/><stop offset="1" stop-color="#a36c2a"/></linearGradient><linearGradient id="linear-gradient-2" x1="40.3" y1="53.97" x2="46.55" y2="60.22" xlink:href="#linear-gradient"/><clipPath id="clip-path"><path class="cls-1" d="M44.85,43.75a1.4,1.4,0,0,0-.36,2c.09.13.22.33.18.45-.36,1.18-.76,2.35-1.16,3.56-.06-.07-.11-.09-.12-.13-.39-1.12-.78-2.24-1.15-3.36a.56.56,0,0,1,.16-.44A1.4,1.4,0,1,0,40,44.52c-.22.75.11,1.35,1,1.77-.26,1.23-.51,2.46-.79,3.78L38.36,48a4.5,4.5,0,0,0,.25-.84A1.29,1.29,0,0,0,37.5,45.8a1.35,1.35,0,0,0-1.48,1,1.29,1.29,0,0,0,.83,1.55.73.73,0,0,1,.52.53c.58,1.65,1.18,3.3,1.78,5,.09,0,.12,0,.15,0a30.32,30.32,0,0,1,8.13,0c.27,0,.32-.13.39-.32.55-1.52,1.12-3,1.67-4.56a.94.94,0,0,1,.59-.65,1.27,1.27,0,0,0,.72-1.6,1.36,1.36,0,0,0-1.54-.88,1.31,1.31,0,0,0-1,1.45,3.57,3.57,0,0,0,.23.7l-1.79,2.09c-.21-1.29-.42-2.45-.6-3.62,0-.11.13-.28.25-.35a1.35,1.35,0,0,0,.51-1.8,1.42,1.42,0,0,0-1.26-.77,1.36,1.36,0,0,0-.74.22"/></clipPath><linearGradient id="linear-gradient-4" x1="37.04" y1="42.29" x2="49.83" y2="55.07" xlink:href="#linear-gradient"/><clipPath id="clip-path-2"><path class="cls-2" d="M39.83,55.35c-1.34.16-1.64.41-1.75,1.76a8.35,8.35,0,0,0,0,.87H48.79c0-.35,0-.65,0-.94-.08-1.18-.47-1.54-1.63-1.68a31.29,31.29,0,0,0-3.74-.23,29,29,0,0,0-3.59.22"/></clipPath><linearGradient id="linear-gradient-6" x1="40.03" y1="53.16" x2="46.83" y2="59.96" xlink:href="#linear-gradient"/></defs><title>logo color ID</title><g id="Layer_2_copy_Image" data-name="Layer 2 copy Image"><path class="cls-3" d="M93,93.11a1.63,1.63,0,0,1-1.26-.49,1.83,1.83,0,0,1-.47-1.33,3.78,3.78,0,0,1,.08-.72,3,3,0,0,1,.2-.66h1.14a5.92,5.92,0,0,0-.13,1.18,1,1,0,0,0,.23.68.74.74,0,0,0,.59.25H96.2V88.64h1.29V92h1.13a0,0,0,0,1,0,0v1s0,0,0,0Zm1.57,2.25a.54.54,0,0,1-.43-.17.7.7,0,0,1-.15-.47.69.69,0,0,1,.15-.48.54.54,0,0,1,.43-.18.53.53,0,0,1,.42.18.69.69,0,0,1,.15.48.65.65,0,0,1-.16.47A.5.5,0,0,1,94.57,95.36Z"/><path class="cls-3" d="M98.54,93.11a0,0,0,0,1-.05,0v-1a0,0,0,0,1,.05,0h1.08V86.25h1.29V92H102a0,0,0,0,1,0,0v1s0,0,0,0Z"/><path class="cls-3" d="M107.94,92a0,0,0,0,1,0,0v1s0,0,0,0h-6a0,0,0,0,1,0,0v-1a0,0,0,0,1,0,0h1.25a1.82,1.82,0,0,1-.42-1.19,2,2,0,0,1,.67-1.6,2.71,2.71,0,0,1,1.86-.59h1.55V92Zm-3.28-4.16a.58.58,0,0,1-.43-.17.73.73,0,0,1-.15-.48.68.68,0,0,1,.15-.47.54.54,0,0,1,.43-.18.56.56,0,0,1,.42.17.73.73,0,0,1,.15.48.65.65,0,0,1-.16.48A.5.5,0,0,1,104.66,87.86Zm.9,4.16v-2.3h-.22a1.28,1.28,0,0,0-.91.3,1.15,1.15,0,0,0-.32.88,1.06,1.06,0,0,0,.31.83,1.25,1.25,0,0,0,.9.29Zm.57-4.16a.54.54,0,0,1-.42-.17.68.68,0,0,1-.16-.48.64.64,0,0,1,.16-.47.52.52,0,0,1,.42-.18.55.55,0,0,1,.43.18.68.68,0,0,1,.15.47.73.73,0,0,1-.16.48A.57.57,0,0,1,106.13,87.86Z"/><path class="cls-3" d="M107.86,93.11a0,0,0,0,1,0,0v-1a0,0,0,0,1,0,0h1.08V86.25h1.29V92h1.13a0,0,0,0,1,0,0v1s0,0,0,0Z"/><path class="cls-3" d="M111.27,93.11a0,0,0,0,1,0,0v-1a0,0,0,0,1,0,0h1.09V86.25h1.29v6.86Z"/><path class="cls-3" d="M119.76,93.11a1.63,1.63,0,0,1-1.26-.49,1.83,1.83,0,0,1-.47-1.33,3.78,3.78,0,0,1,.08-.72,3,3,0,0,1,.2-.66h1.14a5.92,5.92,0,0,0-.13,1.18,1,1,0,0,0,.23.68.74.74,0,0,0,.59.25H123V88.64h1.29V92h1.13a0,0,0,0,1,0,0v1s0,0,0,0Zm.59-4.48a.54.54,0,0,1-.43-.17.7.7,0,0,1-.15-.47.69.69,0,0,1,.15-.48.55.55,0,0,1,.43-.18.52.52,0,0,1,.42.18.69.69,0,0,1,.15.48.65.65,0,0,1-.16.47A.5.5,0,0,1,120.35,88.63Zm.73-1.45a.48.48,0,0,1-.34-.14.53.53,0,0,1-.15-.41.54.54,0,0,1,.15-.42.51.51,0,0,1,.34-.13.48.48,0,0,1,.37.15.55.55,0,0,1,.13.4.58.58,0,0,1-.13.4A.47.47,0,0,1,121.08,87.18Zm.75,1.45a.53.53,0,0,1-.43-.17.79.79,0,0,1,0-.95.52.52,0,0,1,.43-.18.51.51,0,0,1,.41.18.79.79,0,0,1,0,.95A.52.52,0,0,1,121.83,88.63Z"/><path class="cls-3" d="M125.3,93.11a0,0,0,0,1,0,0v-1a0,0,0,0,1,0,0h1.08V86.25h1.29V92h1.13a0,0,0,0,1,0,0v1s0,0,0,0Z"/><path class="cls-3" d="M128.71,93.11a0,0,0,0,1,0,0v-1a0,0,0,0,1,0,0h1.35V88.64h1.29V92h1.3a0,0,0,0,1,0,0v1a0,0,0,0,1,0,0Zm1.17,2.25a.54.54,0,0,1-.43-.17.7.7,0,0,1-.16-.47.69.69,0,0,1,.16-.48.52.52,0,0,1,.43-.18.51.51,0,0,1,.41.18.65.65,0,0,1,.16.48.68.68,0,0,1-.16.47A.5.5,0,0,1,129.88,95.36Zm1.47,0a.51.51,0,0,1-.42-.17.65.65,0,0,1-.16-.47.69.69,0,0,1,.15-.48.55.55,0,0,1,.43-.18.52.52,0,0,1,.42.18.69.69,0,0,1,.16.48.7.7,0,0,1-.16.47A.54.54,0,0,1,131.35,95.36Z"/><path class="cls-3" d="M132.56,93.11a0,0,0,0,1,0,0v-1a0,0,0,0,1,0,0h1.07a1.24,1.24,0,0,1-.3-.48,2.21,2.21,0,0,1-.12-.78,1.94,1.94,0,0,1,.27-1,2,2,0,0,1,.73-.73,1.93,1.93,0,0,1,1-.26,2.08,2.08,0,0,1,1,.25,1.72,1.72,0,0,1,.68.71,2.08,2.08,0,0,1,.24,1V92h1.21V90.35a2.59,2.59,0,0,0-.54-1.76,2,2,0,0,0-1.59-.61,7.63,7.63,0,0,0-1.14.08,5.6,5.6,0,0,0-1,.27l-.29-1A6.71,6.71,0,0,1,135,87a8.09,8.09,0,0,1,1.23-.09,3.5,3.5,0,0,1,2.57.85,3.39,3.39,0,0,1,.85,2.49v2.87ZM135.87,92V90.8a1.12,1.12,0,0,0-.16-.68.62.62,0,0,0-1,0,1.05,1.05,0,0,0-.19.66q0,1.2,1.05,1.2Z"/><path class="cls-3" d="M146.18,95.28a2.46,2.46,0,0,1-1.26-.32,2.06,2.06,0,0,1-.81-.89,3,3,0,0,1-.29-1.32,4.83,4.83,0,0,1,.12-1,4.24,4.24,0,0,1,.33-1h1.14a7.66,7.66,0,0,0-.21,1,5.78,5.78,0,0,0-.08,1,1.62,1.62,0,0,0,.31,1,1.05,1.05,0,0,0,.84.39h.26a1.19,1.19,0,0,0,1-.38,1.6,1.6,0,0,0,.31-1.06v-6.5h1.29v6.54a2.23,2.23,0,0,1-2.55,2.49Z"/><path class="cls-3" d="M153.24,92a0,0,0,0,1,0,0v1s0,0,0,0h-2.38V86.25h1.29V92Z"/><path class="cls-3" d="M153.15,93.11s0,0,0,0v-1a0,0,0,0,1,0,0h1.52V88.64H156v4.47Zm.7,2.25a.51.51,0,0,1-.42-.17.79.79,0,0,1,0-1,.58.58,0,0,1,.84,0,.69.69,0,0,1,.15.48.68.68,0,0,1-.15.47A.54.54,0,0,1,153.85,95.36Zm1.48,0a.54.54,0,0,1-.43-.17.7.7,0,0,1-.15-.47.69.69,0,0,1,.15-.48.52.52,0,0,1,.43-.18.52.52,0,0,1,.42.18.69.69,0,0,1,.15.48.65.65,0,0,1-.16.47A.5.5,0,0,1,155.33,95.36Z"/><path class="cls-3" d="M159.11,95.28a5,5,0,0,1-1-.1,2.7,2.7,0,0,1-.83-.34l.51-1a2.91,2.91,0,0,0,.66.26,2.82,2.82,0,0,0,.65.08,1,1,0,0,0,.76-.28,1.06,1.06,0,0,0,.27-.77v0h-.86a1.82,1.82,0,0,1-1.43-.55,2.22,2.22,0,0,1-.5-1.55,2.37,2.37,0,0,1,.34-1.26,2.32,2.32,0,0,1,1-.83,3.51,3.51,0,0,1,1.45-.28h1.32v4.49a2.06,2.06,0,0,1-.6,1.59A2.39,2.39,0,0,1,159.11,95.28Zm1-3.26v-2.3h-.28a1.15,1.15,0,0,0-.87.33,1.57,1.57,0,0,0-.1,1.72.8.8,0,0,0,.65.25Z"/><path class="cls-3" d="M163.39,95.28a3,3,0,0,1-.82-.11,2.89,2.89,0,0,1-.78-.4l.52-.88a1.77,1.77,0,0,0,.41.21,1.25,1.25,0,0,0,.42.06.7.7,0,0,0,.56-.28,1.09,1.09,0,0,0,.21-.69V88.64h1.29v4.61a2.12,2.12,0,0,1-.49,1.48A1.71,1.71,0,0,1,163.39,95.28Z"/><path class="cls-3" d="M173.08,92a0,0,0,0,1,0,0v1a0,0,0,0,1,0,0H172v.14a2.12,2.12,0,0,1-.5,1.48,1.68,1.68,0,0,1-1.31.55,3,3,0,0,1-.82-.11,2.89,2.89,0,0,1-.78-.4l.52-.88a2,2,0,0,0,.4.21,1.35,1.35,0,0,0,.43.06.67.67,0,0,0,.55-.28,1,1,0,0,0,.22-.69V88.64H172V92Zm-1.67-4.16a.58.58,0,0,1-.43-.17.73.73,0,0,1-.15-.48.68.68,0,0,1,.15-.47.54.54,0,0,1,.43-.18.56.56,0,0,1,.42.17.73.73,0,0,1,.15.48.68.68,0,0,1-.16.48A.53.53,0,0,1,171.41,87.86Z"/><path class="cls-3" d="M173,93.11s0,0,0,0v-1a0,0,0,0,1,0,0h3.39V90.57a1,1,0,0,0-.36-.83,1.55,1.55,0,0,0-1-.3h-1.47v-1a5.25,5.25,0,0,1,1.29-1.78,5.91,5.91,0,0,1,1.94-1.18l.48,1.21a5.16,5.16,0,0,0-1.41.7,3.44,3.44,0,0,0-1,.94h.33c1.65,0,2.48.68,2.48,2v2.71Z"/><path class="cls-3" d="M182.51,92a0,0,0,0,1,.05,0v1a0,0,0,0,1-.05,0h-1.12v.14a2.12,2.12,0,0,1-.5,1.48,1.71,1.71,0,0,1-1.32.55,2.94,2.94,0,0,1-.81-.11,2.89,2.89,0,0,1-.78-.4l.52-.88a1.73,1.73,0,0,0,.4.21,1.33,1.33,0,0,0,.42.06.69.69,0,0,0,.56-.28,1.09,1.09,0,0,0,.21-.69V88.64h1.3V92Z"/><path class="cls-3" d="M183.41,92a3.08,3.08,0,0,1-.24-1.24,3.45,3.45,0,0,1,.13-.85,4.09,4.09,0,0,1,.31-.78,4,4,0,0,1,.9-.38,3,3,0,0,1,.82-.13,2.27,2.27,0,0,1,1.08.26,1.81,1.81,0,0,1,.75.75,2.26,2.26,0,0,1,.27,1.12,2.33,2.33,0,0,1-.31,1.22,2,2,0,0,1-.85.82,2.47,2.47,0,0,1-1.21.3h-2.63s0,0,0,0v-1a0,0,0,0,1,0,0Zm1-1a3.38,3.38,0,0,0,.2,1h.33a1.19,1.19,0,0,0,.88-.36,1.26,1.26,0,0,0,.35-.89,1.18,1.18,0,0,0-.22-.76.73.73,0,0,0-.6-.29,1.65,1.65,0,0,0-.81.25A4.09,4.09,0,0,0,184.37,91Z"/><rect class="cls-4" x="88.78" y="81.77" width="101.06" height="0.74"/><path class="cls-4" d="M101.56,25.25h-.49c-2.33-.11-3-.63-3.77-1.75-.48-.74-1-1.7-1.5-2.65a1.28,1.28,0,0,0-1.24-.75h-.35v2.59c0,1.47.18,1.63,1.57,1.77v.64H90.25v-.64c1.36-.14,1.59-.3,1.59-1.77V15.82c0-1.43-.18-1.64-1.52-1.75v-.64h5.09a5.63,5.63,0,0,1,3.33.68A2.79,2.79,0,0,1,100,16.5a3.07,3.07,0,0,1-2.28,2.91c.27.53.94,1.72,1.49,2.54a15.69,15.69,0,0,0,1.41,2,2.42,2.42,0,0,0,1.09.74Zm-6.9-5.87a2.76,2.76,0,0,0,1.85-.48,2.62,2.62,0,0,0,.88-2.15c0-1.91-1.12-2.61-2.17-2.61a1.32,1.32,0,0,0-.85.2c-.13.11-.16.31-.16.66v4.38Z"/><path class="cls-4" d="M108.84,13.16a6,6,0,0,1,6.24,6c0,3.89-2.94,6.25-6.49,6.25a6.07,6.07,0,0,1-6.37-6.1c0-3.13,2.35-6.11,6.61-6.11Zm-.37.77c-1.89,0-3.47,1.84-3.47,5s1.51,5.64,4,5.64c1.8,0,3.35-1.66,3.35-5,0-3.58-1.61-5.69-3.82-5.69Z"/><path class="cls-4" d="M127.17,14.07a2.57,2.57,0,0,0-2.23,1.52c-.66,1-1.16,1.8-2.06,3.47a2.18,2.18,0,0,0-.32,1.23v2.3c0,1.64.13,1.75,1.77,1.88v.62h-6v-.62c1.57-.13,1.75-.24,1.75-1.88v-2a1.73,1.73,0,0,0-.25-1c-.51-1-1.19-2.2-2.27-4-.7-1.21-1-1.41-2-1.57v-.64h5.25v.64c-1.21.16-1.21.42-.88,1,.64,1.23,1.41,2.55,2.13,3.89.54-1.06,1.49-2.74,1.91-3.77.31-.73.3-1-1-1.16v-.64h4.25Z"/><path class="cls-4" d="M132.9,25.09v-.64c1.09-.18,1.17-.39.9-1.15-.19-.53-.47-1.3-.77-2.07h-3.56c-.21.59-.47,1.25-.67,2s-.24,1.08,1.1,1.25v.64h-4.11l0-.64c1.25-.14,1.44-.36,2.07-1.91l3.76-9.14.95-.24c1.17,3.13,2.31,6.25,3.52,9.32.61,1.58.85,1.83,2,2v.64Zm-1.59-8.68h-.05c-.51,1.29-1,2.59-1.47,3.86h2.89Z"/><path class="cls-4" d="M148.6,22c-.15.79-.54,2.59-.67,3.09h-9v-.64c1.63-.13,1.83-.23,1.83-1.79V15.83c0-1.53-.2-1.64-1.62-1.76v-.64h5.63v.64c-1.41.12-1.58.23-1.58,1.76v7c0,.84.06,1.15.44,1.31a4.57,4.57,0,0,0,1.39.13,2.41,2.41,0,0,0,1.89-.6A6,6,0,0,0,148,21.81Z"/><path class="cls-4" d="M103.44,31.26c-1.45.12-1.53.23-1.53,1.76v6.84c0,1.55.14,1.65,1.55,1.78v.64H97.84v-.64c1.49-.13,1.61-.23,1.61-1.78V36.57H94.27v3.29c0,1.55.13,1.65,1.51,1.78v.64H90.32v-.64c1.35-.13,1.52-.23,1.52-1.78V33c0-1.53-.17-1.64-1.59-1.76v-.64h5.51v.64c-1.36.12-1.49.23-1.49,1.76v2.61h5.18V33c0-1.53-.12-1.64-1.53-1.76v-.64h5.52Z"/><path class="cls-4" d="M114.65,39.26c-.12.82-.5,2.48-.65,3h-9.4v-.64c1.59-.13,1.76-.23,1.76-1.78V33.05c0-1.6-.17-1.68-1.49-1.79v-.64h8.68c0,.32.1,1.57.17,2.73l-.66.09a3.55,3.55,0,0,0-.76-1.57,2.41,2.41,0,0,0-1.79-.45h-.93c-.72,0-.77,0-.77.62v3.81h1.26c1.54,0,1.8-.11,2-1.36h.66v3.64h-.66c-.23-1.28-.49-1.36-2-1.36h-1.26v3c0,.86.07,1.33.45,1.49a5,5,0,0,0,1.68.17,2.67,2.67,0,0,0,2-.56,6.26,6.26,0,0,0,1-1.79Z"/><path class="cls-4" d="M122.31,42.28v-.64c1.09-.18,1.16-.39.89-1.15-.18-.53-.46-1.3-.77-2.07h-3.56c-.2.59-.46,1.25-.67,2s-.23,1.08,1.1,1.25v.64h-4.1l0-.64c1.25-.15,1.45-.37,2.07-1.91l3.77-9.15.94-.23c1.18,3.13,2.32,6.25,3.52,9.32.61,1.58.86,1.82,2,2v.64Zm-1.6-8.68h0c-.51,1.29-1,2.59-1.47,3.86h2.9Z"/><path class="cls-4" d="M138,39.19c-.15.78-.54,2.59-.68,3.09h-9v-.64c1.63-.13,1.83-.23,1.83-1.79V33c0-1.53-.2-1.64-1.62-1.76v-.64h5.63v.64c-1.41.12-1.58.23-1.58,1.76v7c0,.85.06,1.16.44,1.31a4.27,4.27,0,0,0,1.4.14,2.42,2.42,0,0,0,1.89-.6,6.27,6.27,0,0,0,1-1.88Z"/><path class="cls-4" d="M147.73,33.75a4.14,4.14,0,0,0-.82-1.9c-.34-.32-.78-.43-2-.43h-.81v8.44c0,1.55.2,1.65,1.83,1.78v.64h-6v-.64c1.55-.13,1.75-.23,1.75-1.78V31.42h-.59c-1.67,0-2,.22-2.22.5a4.11,4.11,0,0,0-.78,1.84h-.68c.08-1.34.17-2.67.21-3.59h.45c.29.41.53.45,1.06.45h7.53a1.29,1.29,0,0,0,1.08-.45h.42c0,.76.13,2.4.21,3.54Z"/><path class="cls-4" d="M162.72,31.26c-1.45.12-1.53.23-1.53,1.76v6.84c0,1.55.14,1.65,1.55,1.78v.64h-5.62v-.64c1.49-.13,1.61-.23,1.61-1.78V36.57h-5.18v3.29c0,1.55.13,1.65,1.51,1.78v.64H149.6v-.64c1.35-.13,1.52-.23,1.52-1.78V33c0-1.53-.17-1.64-1.59-1.76v-.64H155v.64c-1.36.12-1.49.23-1.49,1.76v2.61h5.18V33c0-1.53-.12-1.64-1.53-1.76v-.64h5.52Z"/><path class="cls-4" d="M103.44,48.44c-1.45.13-1.53.24-1.53,1.77v6.84c0,1.55.14,1.64,1.55,1.78v.64H97.84v-.64c1.49-.14,1.61-.23,1.61-1.78v-3.3H94.27v3.3c0,1.55.13,1.64,1.51,1.78v.64H90.32v-.64c1.35-.14,1.52-.23,1.52-1.78V50.21c0-1.53-.17-1.64-1.59-1.77v-.63h5.51v.63c-1.36.13-1.49.24-1.49,1.77v2.61h5.18V50.21c0-1.53-.12-1.64-1.53-1.77v-.63h5.52Z"/><path class="cls-4" d="M114.65,56.45c-.12.82-.5,2.48-.65,3h-9.4v-.64c1.59-.14,1.76-.23,1.76-1.78V50.23c0-1.59-.17-1.68-1.49-1.79v-.63h8.68c0,.32.1,1.57.17,2.73l-.66.09a3.55,3.55,0,0,0-.76-1.57,2.41,2.41,0,0,0-1.79-.46h-.93c-.72,0-.77,0-.77.63V53h1.26c1.54,0,1.8-.11,2-1.36h.66v3.64h-.66c-.23-1.29-.49-1.36-2-1.36h-1.26v3c0,.86.07,1.33.45,1.49a5.32,5.32,0,0,0,1.68.17,2.63,2.63,0,0,0,2-.57,6,6,0,0,0,1-1.79Z"/><path class="cls-4" d="M122.31,59.47v-.64c1.09-.19,1.16-.39.89-1.15-.18-.53-.46-1.3-.77-2.08h-3.56c-.2.59-.46,1.25-.67,2s-.23,1.08,1.1,1.25v.64h-4.1l0-.64c1.25-.15,1.45-.37,2.07-1.91l3.77-9.15.94-.23c1.18,3.12,2.32,6.25,3.52,9.31.61,1.59.86,1.83,2,2v.64Zm-1.6-8.68h0c-.51,1.28-1,2.58-1.47,3.86h2.9Z"/><path class="cls-4" d="M139.89,59.63l-.49,0c-2.33-.11-3-.62-3.77-1.75-.48-.74-1-1.69-1.5-2.65a1.28,1.28,0,0,0-1.24-.75h-.35v2.59c0,1.47.18,1.63,1.57,1.78v.64h-5.53v-.64c1.36-.15,1.59-.31,1.59-1.78V50.2c0-1.44-.18-1.65-1.52-1.76v-.63h5.09a5.7,5.7,0,0,1,3.33.67,2.8,2.8,0,0,1,1.22,2.39A3.08,3.08,0,0,1,136,53.79c.27.53.94,1.72,1.49,2.54a16.52,16.52,0,0,0,1.41,2A2.39,2.39,0,0,0,140,59ZM133,53.75a2.76,2.76,0,0,0,1.85-.48,2.59,2.59,0,0,0,.88-2.14c0-1.91-1.12-2.61-2.17-2.61a1.33,1.33,0,0,0-.85.19c-.13.11-.16.31-.16.67v4.37Z"/><path class="cls-4" d="M150.25,50.93a4.24,4.24,0,0,0-.83-1.9c-.34-.32-.78-.43-2-.43h-.81v8.45c0,1.55.2,1.64,1.83,1.78v.64h-6v-.64c1.56-.14,1.75-.23,1.75-1.78V48.6h-.58c-1.67,0-2,.22-2.22.51a4,4,0,0,0-.79,1.84H140c.07-1.34.17-2.68.21-3.6h.45c.28.42.53.46,1,.46h7.53a1.25,1.25,0,0,0,1.08-.46h.43c0,.76.12,2.41.21,3.55Z"/><path class="cls-4" d="M102,73.53a24,24,0,0,1-1,2.91,19.72,19.72,0,0,1-3.51.5c-4.94,0-7.06-3.13-7.06-6,0-3.69,3-6.23,7.4-6.23a14.48,14.48,0,0,1,3.45.51c.16,1,.32,1.8.43,3l-.68.11a3.42,3.42,0,0,0-3.55-2.8c-2.79,0-4.27,2.44-4.27,5.07,0,3.31,1.88,5.46,4.47,5.46,1.59,0,2.76-.94,3.72-2.81Z"/><path class="cls-4" d="M112.79,73.64c-.13.82-.51,2.47-.65,3h-9.41V76c1.6-.14,1.77-.24,1.77-1.78V67.42c0-1.59-.17-1.68-1.5-1.79V65h8.68c0,.32.1,1.57.18,2.74l-.67.08a3.6,3.6,0,0,0-.76-1.57,2.46,2.46,0,0,0-1.79-.45h-.93c-.71,0-.76,0-.76.63v3.81h1.25c1.55,0,1.8-.11,2-1.36h.66v3.64h-.66c-.24-1.29-.49-1.36-2-1.36H107v3c0,.86.06,1.32.44,1.48a5.08,5.08,0,0,0,1.68.17,2.65,2.65,0,0,0,2-.56,6.21,6.21,0,0,0,1-1.79Z"/><path class="cls-4" d="M126.42,65.63c-1,.06-1.36.3-1.44,1.17a18.69,18.69,0,0,0-.19,3v7.09h-.85l-7.83-9h0v4.06a23.09,23.09,0,0,0,.14,2.87c.09.82.41,1.16,1.77,1.24v.63h-4.49V76c1-.1,1.45-.38,1.52-1.17a21.07,21.07,0,0,0,.18-2.94V68.17c0-1.17,0-1.48-.39-1.91a1.93,1.93,0,0,0-1.52-.63V65h3.4l7.19,7.91h0V69.76c0-1.59-.11-2.41-.14-2.93-.09-.81-.47-1.12-1.82-1.2V65h4.46Z"/><path class="cls-4" d="M137.59,68.12a4.3,4.3,0,0,0-.82-1.9c-.35-.32-.79-.43-2-.43H134v8.45c0,1.54.19,1.64,1.82,1.78v.63h-6V76c1.56-.14,1.76-.24,1.76-1.78V65.79H131c-1.67,0-2,.22-2.22.5a4.27,4.27,0,0,0-.79,1.84h-.67c.07-1.33.17-2.67.21-3.59H128c.28.42.53.45,1.06.45h7.52a1.26,1.26,0,0,0,1.08-.45H138c0,.76.12,2.4.21,3.54Z"/><path class="cls-4" d="M149.24,73.64c-.12.82-.5,2.47-.65,3h-9.4V76c1.59-.14,1.76-.24,1.76-1.78V67.42c0-1.59-.17-1.68-1.49-1.79V65h8.68c0,.32.09,1.57.17,2.74l-.66.08a3.6,3.6,0,0,0-.76-1.57,2.47,2.47,0,0,0-1.79-.45h-.94c-.71,0-.76,0-.76.63v3.81h1.25c1.55,0,1.81-.11,2-1.36h.66v3.64h-.66c-.23-1.29-.49-1.36-2-1.36H143.4v3c0,.86.07,1.32.45,1.48a5,5,0,0,0,1.68.17,2.63,2.63,0,0,0,2-.56,6,6,0,0,0,1-1.79Z"/><path class="cls-4" d="M161.41,76.81h-.49c-2.33-.11-3-.62-3.78-1.75-.48-.74-1-1.69-1.5-2.65a1.26,1.26,0,0,0-1.23-.75h-.36v2.59c0,1.47.19,1.63,1.57,1.78v.63h-5.53V76c1.36-.15,1.59-.31,1.59-1.78V67.38c0-1.43-.18-1.64-1.52-1.75V65h5.09a5.73,5.73,0,0,1,3.34.68,2.79,2.79,0,0,1,1.21,2.39A3.09,3.09,0,0,1,157.52,71c.27.52.94,1.71,1.5,2.53a15,15,0,0,0,1.41,2,2.47,2.47,0,0,0,1.09.73Zm-6.91-5.87a2.81,2.81,0,0,0,1.86-.48,2.64,2.64,0,0,0,.88-2.14c0-1.92-1.13-2.61-2.17-2.61a1.35,1.35,0,0,0-.86.19c-.12.11-.16.31-.16.66v4.38Z"/><path class="cls-4" d="M82.06,14.05q-.61,8.76-1.22,17.51Q80.42,37.77,80,44L78.76,61.6c-.12,1.72-.16,3.46-.41,5.17a26.8,26.8,0,0,1-3.15,8.74,43.15,43.15,0,0,1-9.49,11.9C60.07,92.47,53.63,96.24,47,99.74c-.89.47-1.77,1-2.66,1.4a.91.91,0,0,1-.67,0A97,97,0,0,1,20.85,87,38.8,38.8,0,0,1,9.18,70.18a19.4,19.4,0,0,1-1-5.24C7.64,56.24,7,47.53,6.46,38.83q-.6-8.88-1.19-17.77c-.25-3.8-.52-7.59-.78-11.39,0-.16,0-.31,0-.53l1.62-.42c7.84-2,13.76-3.48,22.24-4.34,2.92-.3,4-.51,7-.69.21,0,5.47-.24,8.1-.24.19,0,7.83.23,8,.24,3.66.25,3.72.34,7.36.81A159.68,159.68,0,0,1,77.46,8.26c1.64.41,3.27.86,4.91,1.3,0,.27-.22,3.27-.31,4.49m-72.81-1c0,.2,0,.3,0,.41q.51,7,1,14c.36,5.15.71,10.29,1.08,15.44q.66,9.42,1.33,18.85a26.68,26.68,0,0,0,.87,6.15,33.53,33.53,0,0,0,9.07,14.37,77.24,77.24,0,0,0,10.69,8.3,57.34,57.34,0,0,0,10,5.58,1,1,0,0,0,1,0,101.76,101.76,0,0,0,14.64-9.26,44.8,44.8,0,0,0,9.44-9.21,28.24,28.24,0,0,0,5.2-10.81,43.13,43.13,0,0,0,.63-5.67c.42-5.73.81-11.46,1.21-17.2.3-4.16.58-8.32.87-12.48q.6-8.58,1.22-17.14c0-.43-.08-.59-.5-.72A112.66,112.66,0,0,0,46.38,8.74a132.53,132.53,0,0,0-32,3.11c-1.7.37-3.39.8-5.12,1.21"/><path class="cls-3" d="M36.43,61.15a.45.45,0,0,0-.25.41h0c-.11-.07,0-.29,0-.37a.75.75,0,0,1,.15-.16,1.9,1.9,0,0,0-1.4-.36,2.8,2.8,0,0,0-1.35.62,8.48,8.48,0,0,0-.84.85c0,.13,0,.26,0,.39s0,.19-.05.29a5.1,5.1,0,0,1,.67-.08,1.5,1.5,0,0,1,.3,0,1.58,1.58,0,0,1,1.13-1.26,1.78,1.78,0,0,1,1.52.37c.17-.22.36-.5.19-.72Z"/><path class="cls-3" d="M30.83,62.94c-.07-.16-.13-.32-.19-.49-.11-.33-.34-.84-.47-1.17-.27-.67-.37-1.16-.58-1.85h0a1.47,1.47,0,0,0-.78,0,3.66,3.66,0,0,0,.25,1.17,1.4,1.4,0,0,1,.39.66s0,0,0,0a2.49,2.49,0,0,0-.36-.43,3.08,3.08,0,0,0-.95-.54,2.91,2.91,0,0,0-.92-.15,2,2,0,0,0-.53.08l0,0a.47.47,0,0,1,0,.54h0c0-.12.05-.34-.1-.41a.28.28,0,0,0-.2,0,.42.42,0,0,0,.08.49c.06.09.11.14.23.1a1.73,1.73,0,0,1,.32-.11,1.61,1.61,0,0,1,1.08.15,2.41,2.41,0,0,1,.76.61,2,2,0,0,1,.33.49,1.08,1.08,0,0,1,.08.19l.28-.09c.2-.06.54-.16.74,0a.48.48,0,0,1,.24.51,2.23,2.23,0,0,1-.22.75l-.17.35a6.52,6.52,0,0,1,.68-.38l.19-.09a.27.27,0,0,1-.1-.11C30.9,63.1,30.87,63,30.83,62.94Z"/><path class="cls-3" d="M32.68,60.73c-.15,0-.54,0-.5-.19h0c.05.16.31.09.43.05a.51.51,0,0,0,.18-.09,0,0,0,0,0,0,0,.87.87,0,0,0-.8,0,1.31,1.31,0,0,0-.49.73c-.19.54-.21,1.13-.42,1.67l.09.21a1.31,1.31,0,0,0,.12.11h0A5.83,5.83,0,0,1,32,63l.32-.07c0-.14,0-.28.07-.42l.09-.63c.07-.4.27-.78.37-1.17A.73.73,0,0,1,32.68,60.73Z"/><path class="cls-3" d="M43.67,10.66h-.48A131.19,131.19,0,0,0,11.32,14.8c0,.36,0,.65,0,.94l.87,12,1,13.48q.69,9.75,1.4,19.49a34.09,34.09,0,0,0,.95,7,38.13,38.13,0,0,0,2.59,6,35.84,35.84,0,0,0,4.79,6.14,80.76,80.76,0,0,0,12.34,9.86A37.1,37.1,0,0,0,43,93.92a1.67,1.67,0,0,0,.42.09,1.69,1.69,0,0,0,.41-.09,37.1,37.1,0,0,0,7.75-4.16A80.76,80.76,0,0,0,63.93,79.9a27.72,27.72,0,0,0,7.38-12.18,34.11,34.11,0,0,0,1-7Q73,51,73.66,41.27c.33-4.49.64-9,1-13.48l.87-12c0-.29,0-.58,0-.94A131.17,131.17,0,0,0,43.67,10.66Zm-20,68.51a29.87,29.87,0,0,1-4.51-5.72l1-.31.09,0v0c.31.37.52.61.87,1l.24.31,0-.4c0-.26,0-.45,0-.66,1.12,2,2.16,4,3.11,6L25,80.49C24.53,80.05,24.07,79.61,23.63,79.17Zm13.24-6.79c.12,2.2.16,4.64.1,6.83l0,1.2.31-1.16c.89-3.22,1.83-6.49,2.82-9.72,0,1.37,0,2.73-.07,4.07V74l.26-.23c.38-.34.58-.52,1-.84.53.14,1.06.29,1.58.45v19.4a36.65,36.65,0,0,1-7-3.83A84,84,0,0,1,25,80.49l-.24-1.19c-.66-3.26-1.29-6.58-1.87-9.87.63,1.22,1.23,2.48,1.81,3.74l.14.3.13-.31c.17-.42.27-.65.44-1a7.2,7.2,0,0,0,.24,1.21,7.62,7.62,0,0,0,1.44,2.32c.47.54.85,1.12,1.3,1.68a6,6,0,0,0,1.47,1.45,2.92,2.92,0,0,0,2.13.39,3.76,3.76,0,0,0,1.89-1.09,7.34,7.34,0,0,0,.71-.95c.25-.37.51-.75.74-1.14s.41-.72.61-1.09a16,16,0,0,0,.68-1.6m-8.23,1.19c.34.76.84,1.44,1.25,2.17a8,8,0,0,1,.51,1.12,3.42,3.42,0,0,0,.66,1s0,0,0,0a4.59,4.59,0,0,1-.53-.55c-.13-.16-.29-.31-.41-.48s-.21-.34-.31-.52c-.21-.36-.44-.72-.66-1.08A8.68,8.68,0,0,1,27.74,74a4.07,4.07,0,0,1-.14-1.25,3.34,3.34,0,0,1,.17-1.08,12.46,12.46,0,0,0,1-2.18h0a1.49,1.49,0,0,1,0,.47,7.61,7.61,0,0,1-.37,1.11,8.15,8.15,0,0,0-.31,1.07A4.07,4.07,0,0,0,28.39,74.51Zm45.22-46.8c-.17,2.3-.33,4.61-.49,6.91s-.31,4.39-.47,6.58l-.6,8.38c-.14,1.85-.27,3.71-.4,5.57H53.15v1.27H71.56c-.1,1.42-.21,2.84-.31,4.27l0,.3a32.25,32.25,0,0,1-.89,6.45,26.71,26.71,0,0,1-7.12,11.73A79.61,79.61,0,0,1,51,88.9a36.7,36.7,0,0,1-7,3.83V65.61h-.58l-.67,0v7.18c-.58-.19-1.16-.38-1.76-.54l-.07,0-.06,0-.14.11c.09-2.19.07-4.42,0-6.63l0-.85-.25.81c-.95,3.15-1.89,6.38-2.77,9.61,0-1.53-.08-3.08-.19-4.61l0-.47-.24.41c-.21.37-.13.24-.24.45l0-.27A8.24,8.24,0,0,1,37.11,69a6.76,6.76,0,0,0,0-1.49,4.78,4.78,0,0,0-.09-.76,3,3,0,0,0-.07-.32,3.09,3.09,0,0,0-.85.14,3.35,3.35,0,0,0-1.64,1.26,2.54,2.54,0,0,0-.57,1.91,2.65,2.65,0,0,0,1.31,1.75s0,0,0,0a3.82,3.82,0,0,1-1.1-.61l0,.15a.86.86,0,0,1,0,.45,1.34,1.34,0,0,1-.07.18s0,0,0,0A.48.48,0,0,0,34,72a1.38,1.38,0,0,0,0,.2,1.24,1.24,0,0,0,.15.42,6.25,6.25,0,0,1,.46.79.75.75,0,0,1,0,.42s0,.06,0,.09a.28.28,0,0,1,0,.09.55.55,0,0,0,0,.18,1.12,1.12,0,0,0,.11.25,1,1,0,0,1-.12.93h0a1.42,1.42,0,0,0,.09-.61.64.64,0,0,0-.13-.32,1.51,1.51,0,0,1-.09-.18,1.68,1.68,0,0,0-.28.55h0a.64.64,0,0,1,.09-.5,4,4,0,0,0,.17-.44,1.37,1.37,0,0,0,0-.19.87.87,0,0,0-.19-.37,2.74,2.74,0,0,1-.55-1.09l-.07.1a3.11,3.11,0,0,0-.25.38,3.93,3.93,0,0,0-.18.43,3.92,3.92,0,0,1-.45.89l0,.06a1.14,1.14,0,0,0-.06.33,3,3,0,0,0,.14.79c0,.06,0,.13,0,.2.23.24.53.44.51.8h0a1.14,1.14,0,0,0-.45-.59,2.12,2.12,0,0,1,0,1.09s0,0,0,0c.08-.57-.27-1.08-.36-1.63a2.64,2.64,0,0,1,0-.63l-.32.36c-.24.26-.51.5-.74.76a3.08,3.08,0,0,0-.75,1.77h0a2.14,2.14,0,0,1,.06-.94,3.34,3.34,0,0,1,.4-.83,7.9,7.9,0,0,1,.62-.81,7.68,7.68,0,0,0,.64-.77,4.12,4.12,0,0,0,.46-.85,4.26,4.26,0,0,1,.26-.62l-.16,0a9.29,9.29,0,0,0-1.33.5,3.78,3.78,0,0,0-.66.35,2.75,2.75,0,0,0-.46.44,2.53,2.53,0,0,1-.92.73h0a3,3,0,0,0,.45-.49,5.22,5.22,0,0,1,.34-.48,2,2,0,0,1,.42-.41,2.33,2.33,0,0,1,.41-.24.24.24,0,0,1-.09-.08c-.15-.19-.3-.47-.58-.5,0,0,0,0,0,0a.63.63,0,0,1,.55.26.79.79,0,0,0,.25.19.2.2,0,0,0,.13,0,7.76,7.76,0,0,1,1.24-.48,4.22,4.22,0,0,0,.6-.2l.07,0a2.59,2.59,0,0,0,.36-.59,1.6,1.6,0,0,0,.11-.43c0-.15,0-.29,0-.43l-.06-.1A2,2,0,0,1,33.57,69a3.65,3.65,0,0,1,1-1.79,3.73,3.73,0,0,1,1.84-1,12.48,12.48,0,0,0,2-.21.81.81,0,0,0,.5-.61,1.37,1.37,0,0,0,.1-.74c-.48.12-.51.68-.51,1.07,0,0,0,0,0,0a1.54,1.54,0,0,1,.11-1.07c-.1,0-.2,0-.3,0a9,9,0,0,0-.93.15c-.61.12-1.2.29-1.79.43a8,8,0,0,1-1.75.27,3.14,3.14,0,0,1-.81-.08,1.49,1.49,0,0,1-.37-.14c-.06,0-.12-.09-.19-.12l-.14.07a1.69,1.69,0,0,0-.7.75l-.06.14a.42.42,0,0,1,.28.17.67.67,0,0,1,0,.6,1.86,1.86,0,0,1-.33.6,1.8,1.8,0,0,1-.45.42,2.61,2.61,0,0,1-1.4.3c-.46,0-.93-.18-1-.63a0,0,0,0,1,.06,0,1.15,1.15,0,0,0,1,.41,3,3,0,0,0,1.11-.29,1.34,1.34,0,0,0,.58-.78.77.77,0,0,0,.07-.42.5.5,0,0,1-.05-.13l-.09.25a3.52,3.52,0,0,1-.19.51h0a2.41,2.41,0,0,1-.05-.71,1.57,1.57,0,0,1,.23-.7,1.87,1.87,0,0,1,.86-.78,2.24,2.24,0,0,1,1.11-.23,1.26,1.26,0,0,1,.51.15.55.55,0,0,1,.26.29c.46,0,.92-.15,1.36-.24l.22,0a1.07,1.07,0,0,1-.13-.19c-.11-.17-.19-.36-.3-.54a2.11,2.11,0,0,0-1.52-1,3.44,3.44,0,0,0-1.24,0,7,7,0,0,0-1.23.36,5.4,5.4,0,0,0-2,1.42,2.13,2.13,0,0,0-.45.87c-.08.38,0,.78-.1,1.15,0,0,0,0,0,0,0-.23-.13-.45-.14-.69a2.44,2.44,0,0,1,0-.38,1.79,1.79,0,0,1,.33-1,3.64,3.64,0,0,1,.4-.48l.07-.08a.45.45,0,0,1-.27-.45,2,2,0,0,1,.82-1.41s0,0,0,0a1.93,1.93,0,0,0-.46.53,1,1,0,0,0-.19.73.59.59,0,0,0,.17.27s0,0,.07,0a1,1,0,0,0,.31-.37,5.28,5.28,0,0,0,.27-.53,1.45,1.45,0,0,0,.25-.72c0-.24-.48,0-.62,0l-.68.28a6.26,6.26,0,0,0-1.64,1.14,4.86,4.86,0,0,0-.67.76l-.28.41a7.35,7.35,0,0,1,.91-.28c.19,0,.36-.11.55-.16a1.89,1.89,0,0,0,.51-.26s0,0,0,0a1.72,1.72,0,0,1-.34.32,3.76,3.76,0,0,1-.46.32c-.32.17-.68.26-1,.41a2.88,2.88,0,0,0-1.37,1.43,6.08,6.08,0,0,0-.17,3.51,2.39,2.39,0,0,1,1.4-1.18A4.33,4.33,0,0,1,27.69,69a4.17,4.17,0,0,0,.6-.1,2.16,2.16,0,0,0,.59-.29s0,0,0,0l-.14.1a3.88,3.88,0,0,1-1,.46,8.7,8.7,0,0,0-1.17.29,1.85,1.85,0,0,0-1.27,1.63,3,3,0,0,0,0,.42h0l-.29,0h-.08l-.05.11a1.17,1.17,0,0,1-.05.11c-.93-2.05-2-4.08-3.07-6.05L21.34,65l.15.85c.57,3.25,1.19,6.53,1.85,9.77-.72-1.4-1.49-2.79-2.29-4.14l-.24-.4,0,.46c0,.46-.05.75-.07,1.12L20,71.77l-.2-.23-.05.3c-.07.35-.1.54-.15.86l-.73.26a24.48,24.48,0,0,1-2.32-5.52,31.54,31.54,0,0,1-.9-6.45l0-.3c-.1-1.43-.2-2.85-.31-4.27H33.74V55.15H15.2c-.13-1.86-.26-3.72-.4-5.57l-.6-8.38c-.15-2.19-.31-4.39-.47-6.58s-.32-4.61-.49-6.91c-.05-.76-.11-1.52-.16-2.27a130.43,130.43,0,0,1,29.72-4v18h1.25v-18a130.43,130.43,0,0,1,29.72,4C73.72,26.19,73.66,27,73.61,27.71Zm.87-12c-.12,1.7-.25,3.41-.37,5.11-.09,1.21-.18,2.42-.26,3.63a131,131,0,0,0-30.42-4A131.06,131.06,0,0,0,13,24.4c-.08-1.21-.17-2.42-.26-3.63-.12-1.7-.24-3.41-.37-5.11V15.6A130.13,130.13,0,0,1,43.2,11.69h.43A130.29,130.29,0,0,1,74.48,15.6Z"/><path class="cls-4" d="M69.54,32c-2,.19-1.84.35-1.84,2.65v8.1c0,2.32,0,2.46,1.88,2.67v1H62.15v-1c2-.21,2.21-.35,2.21-2.67V38.85H59.08v3.87c0,2.32.18,2.46,2.06,2.67v1H53.92v-1c1.84-.21,1.85-.35,1.85-2.67v-8.1c0-2.3,0-2.46-2-2.65V31h7.3V32c-1.86.19-2,.35-2,2.65v2.84h5.28V34.62c0-2.3-.17-2.46-2.09-2.65V31h7.27Z"/><path class="cls-4" d="M33.75,46.34l-.68,0c-3.21-.14-4.19-.81-5.2-2.27-.66-.95-1.32-2.19-2.06-3.43a1.8,1.8,0,0,0-1.71-1h-.49V43c0,1.91.25,2.12,2.16,2.31v.82H18.15v-.82c1.88-.19,2.2-.4,2.2-2.31V34.12c0-1.86-.26-2.13-2.1-2.28V31h7c2.28,0,3.56.22,4.59.87A3.57,3.57,0,0,1,31.54,35c0,2.07-1.47,3.18-3.15,3.78a37.07,37.07,0,0,0,2.06,3.29,20.55,20.55,0,0,0,1.95,2.55,3.37,3.37,0,0,0,1.5,1Zm-9.52-7.61a4.08,4.08,0,0,0,2.56-.62A3.32,3.32,0,0,0,28,35.33c0-2.48-1.55-3.39-3-3.39a2,2,0,0,0-1.18.25c-.17.15-.22.4-.22.86v5.68Z"/><path class="cls-4" d="M19.72,21.16l-.2,0c-1,.19-1.31.06-1.73-.31-.27-.25-.57-.58-.9-.9a.54.54,0,0,0-.6-.16l-.14,0,.28,1c.16.59.25.63.84.54,0,.1,0,.15.06.26-.9.24-1.35.36-2.25.62a2.33,2.33,0,0,1-.07-.25c.53-.22.61-.31.45-.9l-.78-2.73c-.16-.57-.26-.64-.84-.52l-.08-.25,2.17-.61a2.6,2.6,0,0,1,1.5-.1,1.14,1.14,0,0,1,.76.84,1.3,1.3,0,0,1-.67,1.41c.17.18.58.59.89.86a7.16,7.16,0,0,0,.78.65,1.1,1.1,0,0,0,.52.19,2.09,2.09,0,0,0,0,.25m-3.46-1.63a1.24,1.24,0,0,0,.72-.4,1.06,1.06,0,0,0,.15-.95,1,1,0,0,0-1.2-.81.63.63,0,0,0-.34.18c0,.05,0,.14,0,.28l.48,1.75.19,0"/><path class="cls-4" d="M21.69,15.58a2.52,2.52,0,0,1,3.14,1.91,2.61,2.61,0,0,1-2.21,3.07,2.55,2.55,0,1,1-.94-5h0m-.1.35c-.81.17-1.32,1.07-1,2.35s1.13,2.14,2.14,1.93c.75-.15,1.26-.95,1-2.3s-1.15-2.18-2.1-2h0"/><path class="cls-4" d="M29.71,14.61a1.11,1.11,0,0,0-.88.75,14.11,14.11,0,0,0-.68,1.55.9.9,0,0,0-.06.53c.05.38.08.56.14.94.1.68.16.71.85.66a2,2,0,0,0,0,.26c-1,.14-1.49.22-2.48.38a2.17,2.17,0,0,1,0-.25c.64-.16.71-.22.6-.89-.05-.32-.07-.48-.12-.8a.74.74,0,0,0-.18-.39c-.27-.36-.65-.81-1.24-1.48-.38-.44-.54-.5-1-.48l-.05-.26c.91-.17,1.37-.24,2.28-.39l0,.27c-.51.14-.49.25-.31.48.36.46.77,1,1.16,1.45.17-.46.47-1.21.6-1.66s.07-.43-.53-.41c0-.11,0-.16,0-.27.74-.11,1.11-.16,1.86-.25,0,.1,0,.15,0,.26"/><path class="cls-4" d="M32.69,18.86c0-.11,0-.16,0-.26.45-.13.47-.22.33-.52s-.25-.52-.42-.82l-1.5.17c-.06.25-.13.55-.19.85s0,.45.53.46l0,.26c-.69.08-1,.12-1.72.22,0-.11,0-.16,0-.27.51-.13.58-.23.77-.9.44-1.58.67-2.37,1.16-4L32,14c.66,1.24,1.28,2.48,1.9,3.7.32.63.43.72.93.74,0,.1,0,.15,0,.26-.88.07-1.31.12-2.19.21m-1.07-3.51h0c-.16.55-.31,1.11-.45,1.66l1.23-.14c-.3-.61-.45-.92-.76-1.53"/><path class="cls-4" d="M39.2,17.1c0,.32-.18,1.08-.23,1.29-1.5.06-2.25.11-3.76.23,0-.1,0-.16,0-.26.68-.11.76-.16.71-.8l-.2-2.82c-.05-.64-.14-.68-.77-.68a2.11,2.11,0,0,0,0-.26c1-.08,1.48-.12,2.47-.17l0,.26c-.62.09-.69.14-.65.77.07,1.16.11,1.74.18,2.9,0,.35.06.48.22.53a1.57,1.57,0,0,0,.59,0,1,1,0,0,0,.78-.29,2.44,2.44,0,0,0,.41-.79l.27.07"/><path class="cls-4" d="M47.31,13.79c-.63,0-.67.08-.69.71,0,1.14-.06,1.7-.09,2.84,0,.64,0,.68.63.76a2.26,2.26,0,0,1,0,.26c-.94,0-1.41-.05-2.36-.06V18c.63-.05.68-.09.69-.73s0-.82,0-1.37l-2.22,0v1.37c0,.64.05.68.63.74v.26c-.91,0-1.37,0-2.29,0V18c.56-.06.64-.1.63-.74,0-1.14,0-1.71,0-2.84,0-.64-.08-.68-.71-.72v-.27c1,0,1.45,0,2.42,0v.26c-.6,0-.66.1-.66.73,0,.44,0,.65,0,1.09.89,0,1.34,0,2.23,0l0-1.08c0-.64,0-.69-.66-.75v-.26c1,0,1.45,0,2.42.06,0,.11,0,.16,0,.26"/><path class="cls-4" d="M51.94,17.4c-.08.33-.3,1-.38,1.22-1.57-.13-2.36-.17-3.93-.24a2.17,2.17,0,0,1,0-.26c.67,0,.74-.07.78-.71,0-1.13.08-1.69.13-2.82,0-.66,0-.7-.61-.77v-.27c1.52.07,2.28.12,3.8.24,0,.13,0,.65,0,1.13l-.29,0a1.47,1.47,0,0,0-.28-.68A1.14,1.14,0,0,0,50.4,14L50,14c-.31,0-.33,0-.35.24,0,.63,0,.95-.09,1.58l.54,0c.66.05.78,0,.91-.5l.29,0c0,.6-.07.9-.11,1.51l-.29,0c-.06-.54-.17-.58-.83-.63l-.53,0c0,.5-.05.76-.08,1.26s0,.55.15.62a2.22,2.22,0,0,0,.7.12,1.15,1.15,0,0,0,.88-.17,2.61,2.61,0,0,0,.49-.71l.27.09"/><path class="cls-4" d="M55,19c0-.1,0-.16,0-.26.47,0,.51-.11.43-.43s-.13-.56-.22-.89l-1.51-.17c-.11.24-.25.51-.37.79s-.14.43.42.56a2.6,2.6,0,0,0,0,.26l-1.72-.16,0-.26c.53,0,.62-.1.95-.71.78-1.45,1.18-2.17,2-3.61l.43-.05c.36,1.35.7,2.69,1,4,.17.68.26.8.74.93,0,.1,0,.15,0,.26-.87-.12-1.31-.18-2.19-.28m-.27-3.65h0c-.28.5-.54,1-.79,1.52l1.23.14c-.16-.67-.25-1-.41-1.66"/><path class="cls-4" d="M61.79,18.67c-.12.31-.42,1-.51,1.21-1.49-.27-2.24-.39-3.73-.6l0-.26c.69,0,.78,0,.88-.62.16-1.12.24-1.68.41-2.8.09-.63,0-.69-.6-.83l0-.26c1,.14,1.47.21,2.45.37,0,.11,0,.16,0,.27-.62-.06-.7,0-.8.61-.18,1.14-.28,1.72-.46,2.86-.05.35-.05.49.1.57a1.72,1.72,0,0,0,.57.15,1,1,0,0,0,.83-.11,2.57,2.57,0,0,0,.57-.69l.26.13"/><path class="cls-4" d="M66.35,17.29a1.79,1.79,0,0,0-.18-.85c-.11-.16-.3-.25-.81-.35L65,16c-.28,1.38-.43,2.06-.71,3.43-.13.63-.06.69.6.89l-.05.25c-1-.21-1.49-.31-2.49-.5l0-.26c.66.07.75.05.87-.58L64,15.8l-.25-.05c-.72-.14-.87-.06-1,0a1.82,1.82,0,0,0-.48.69l-.29-.05c.13-.54.27-1.08.36-1.45l.2,0c.09.2.19.23.42.27,1.3.25,2,.38,3.26.66a.55.55,0,0,0,.5-.08l.19.05c-.07.31-.17,1-.24,1.45l-.28-.05"/><path class="cls-4" d="M73,17.93c-.63-.13-.68-.09-.85.52-.31,1.09-.47,1.63-.77,2.73-.18.61-.13.67.43.89l-.07.25-2.3-.64.07-.25c.63.11.69.08.86-.53s.21-.8.36-1.32c-.87-.24-1.31-.35-2.18-.57-.13.53-.19.8-.33,1.33s-.11.67.45.87c0,.1,0,.15-.07.26-.89-.23-1.34-.34-2.24-.55a2.44,2.44,0,0,0,.06-.26c.57.08.65.06.8-.57.26-1.1.39-1.65.66-2.76.14-.62.08-.68-.52-.87l.06-.26c.95.22,1.43.34,2.37.58,0,.1,0,.15-.06.26-.6-.1-.67-.07-.82.54-.1.42-.16.63-.26,1.06.87.21,1.31.33,2.18.56l.28-1c.17-.61.13-.67-.46-.88,0-.11,0-.16.07-.26.94.25,1.41.38,2.35.66l-.07.25"/><path class="cls-5" d="M53.89,41.79c-.12,1.59-.23,3.19-.34,4.78-.07,1.13-.15,2.26-.23,3.39L53,54.76c0,.47-.05,1-.12,1.41A7.24,7.24,0,0,1,52,58.55a11.44,11.44,0,0,1-2.58,3.25,24.65,24.65,0,0,1-5.11,3.36c-.24.13-.48.26-.73.38a.23.23,0,0,1-.18,0,26.29,26.29,0,0,1-6.22-3.86A10.54,10.54,0,0,1,34,57.1a5,5,0,0,1-.26-1.43l-.48-7.12-.33-4.84-.21-3.11v-.15l.44-.11a41,41,0,0,1,6.5-1.08c.8-.06,1.6-.1,2.4-.14.06,0,.52,0,1.24,0l1.85,0c1,.07,1.38.08,2.38.17a33.67,33.67,0,0,1,5.09.89l1.34.36c0,.07-.06.89-.08,1.22"/><path class="cls-5" d="M54.44,41.24c-.12,1.67-.23,3.35-.35,5-.08,1.19-.16,2.38-.25,3.57-.11,1.69-.23,3.37-.35,5.06,0,.49,0,1-.11,1.48a7.72,7.72,0,0,1-.91,2.51,12.34,12.34,0,0,1-2.72,3.42,26.33,26.33,0,0,1-5.38,3.54l-.76.4a.31.31,0,0,1-.19,0,28,28,0,0,1-6.55-4.07,11.12,11.12,0,0,1-3.35-4.83,5.1,5.1,0,0,1-.28-1.5c-.16-2.5-.34-5-.5-7.5-.12-1.7-.23-3.4-.34-5.1-.08-1.09-.15-2.18-.23-3.27v-.15l.47-.12a42.83,42.83,0,0,1,6.84-1.14c.84-.07,1.68-.1,2.53-.15.06,0,.54,0,1.29,0l2,.06c1,.07,1.46.08,2.51.18a34.76,34.76,0,0,1,5.36.94c.47.11.94.24,1.41.37,0,.08-.06.94-.09,1.29"/><rect class="cls-3" x="31.2" y="55.14" width="26.88" height="1.28"/><rect class="cls-3" x="27.86" y="52.2" width="31.13" height="1.22" transform="translate(96.24 9.38) rotate(90)"/><path class="cls-5" d="M33.54,41a.38.38,0,0,0,0,.12c.09,1.34.19,2.68.28,4s.21,2.95.31,4.43c.13,1.8.26,3.6.38,5.41a7.47,7.47,0,0,0,.25,1.76,9.62,9.62,0,0,0,2.61,4.13,21.52,21.52,0,0,0,3.07,2.38,15.81,15.81,0,0,0,2.87,1.6.28.28,0,0,0,.28,0,30.65,30.65,0,0,0,4.2-2.66,13.3,13.3,0,0,0,2.71-2.64A8.22,8.22,0,0,0,52,56.38a12.54,12.54,0,0,0,.18-1.62c.12-1.65.23-3.29.35-4.94.08-1.19.16-2.39.25-3.58.11-1.64.23-3.29.35-4.93,0-.12,0-.16-.14-.2a32.41,32.41,0,0,0-8.79-1.4,38.38,38.38,0,0,0-9.19.9c-.49.1-1,.23-1.47.34"/><path class="cls-3" d="M52.26,40.7a33.82,33.82,0,0,0-4.89-.86c-1-.09-1.33-.09-2.29-.16l-1.77,0c-.69,0-1.13,0-1.18,0-.77,0-1.54.07-2.31.14a38.68,38.68,0,0,0-6.24,1l-.42.11a.65.65,0,0,0,0,.14c.06,1,.13,2,.2,3,.11,1.55.21,3.1.31,4.65.15,2.28.31,4.56.46,6.84a5.26,5.26,0,0,0,.25,1.37,10.21,10.21,0,0,0,3.06,4.4,25.26,25.26,0,0,0,6,3.71.2.2,0,0,0,.17,0c.24-.11.47-.24.7-.36a23.88,23.88,0,0,0,4.9-3.23,11.49,11.49,0,0,0,2.49-3.11A7.07,7.07,0,0,0,52.49,56c.07-.45.08-.91.11-1.36.11-1.53.21-3.07.32-4.61.08-1.08.15-2.17.22-3.25.11-1.53.22-3.06.32-4.58,0-.32.08-1.11.08-1.18ZM52,46.77c-.08,1.09-.15,2.18-.23,3.27-.1,1.5-.21,3-.32,4.5A12.34,12.34,0,0,1,51.24,56a7.5,7.5,0,0,1-1.36,2.83,11.81,11.81,0,0,1-2.48,2.41,27.16,27.16,0,0,1-3.83,2.42.28.28,0,0,1-.25,0,16,16,0,0,1-2.62-1.46,21,21,0,0,1-2.8-2.18,8.81,8.81,0,0,1-2.37-3.76,7.36,7.36,0,0,1-.23-1.61c-.12-1.65-.23-3.29-.35-4.94-.09-1.34-.19-2.69-.28-4s-.17-2.44-.26-3.66a.46.46,0,0,0,0-.1l1.34-.32a34.24,34.24,0,0,1,8.38-.81,29.46,29.46,0,0,1,8,1.27c.11,0,.13.07.13.19C52.16,43.78,52.05,45.28,52,46.77Z"/><path class="cls-1" d="M44.85,43.75a1.4,1.4,0,0,0-.36,2c.09.13.22.33.18.45-.36,1.18-.76,2.35-1.16,3.56-.06-.07-.11-.09-.12-.13-.39-1.12-.78-2.24-1.15-3.36a.56.56,0,0,1,.16-.44A1.4,1.4,0,1,0,40,44.52c-.22.75.11,1.35,1,1.77-.26,1.23-.51,2.46-.79,3.78L38.36,48a4.5,4.5,0,0,0,.25-.84A1.29,1.29,0,0,0,37.5,45.8a1.35,1.35,0,0,0-1.48,1,1.29,1.29,0,0,0,.83,1.55.73.73,0,0,1,.52.53c.58,1.65,1.18,3.3,1.78,5,.09,0,.12,0,.15,0a30.32,30.32,0,0,1,8.13,0c.27,0,.32-.13.39-.32.55-1.52,1.12-3,1.67-4.56a.94.94,0,0,1,.59-.65,1.27,1.27,0,0,0,.72-1.6,1.36,1.36,0,0,0-1.54-.88,1.31,1.31,0,0,0-1,1.45,3.57,3.57,0,0,0,.23.7l-1.79,2.09c-.21-1.29-.42-2.45-.6-3.62,0-.11.13-.28.25-.35a1.35,1.35,0,0,0,.51-1.8,1.42,1.42,0,0,0-1.26-.77,1.36,1.36,0,0,0-.74.22"/><g class="cls-6"><rect class="cls-7" x="35.85" y="43.48" width="15.17" height="10.4"/></g><path class="cls-2" d="M39.83,55.35c-1.34.16-1.64.41-1.75,1.76a8.35,8.35,0,0,0,0,.87H48.79c0-.35,0-.65,0-.94-.08-1.18-.47-1.54-1.63-1.68a31.29,31.29,0,0,0-3.74-.23,29,29,0,0,0-3.59.22"/><g class="cls-8"><rect class="cls-9" x="38.05" y="55.13" width="10.75" height="2.85"/></g><path class="cls-4" d="M62.31,74.2A28.81,28.81,0,0,1,61,77.86a25,25,0,0,1-4.37.61c-6.16,0-8.8-3.92-8.8-7.51,0-4.63,3.68-7.81,9.23-7.81a17.83,17.83,0,0,1,4.29.63c.2,1.23.4,2.26.54,3.75l-.84.14a4.28,4.28,0,0,0-4.44-3.5c-3.46,0-5.31,3.06-5.31,6.35,0,4.15,2.33,6.86,5.57,6.86,2,0,3.44-1.18,4.63-3.54Z"/></g></svg>