<svg xmlns="http://www.w3.org/2000/svg" xmlns:xlink="http://www.w3.org/1999/xlink" viewBox="0 0 186.02 104.07"><defs><style>.cls-1{fill:#86704d;}.cls-2{fill:#db0032;}.cls-3{fill:#00416b;}.cls-4{fill:#fff;}.cls-5{clip-path:url(#clip-path);}.cls-6{clip-path:url(#clip-path-2);}</style><clipPath id="clip-path"><path class="cls-1" d="M44.86,43.72a1.43,1.43,0,0,0-.36,2.09c.09.13.22.33.18.45-.37,1.2-.77,2.4-1.18,3.63-.07-.07-.11-.1-.12-.13-.4-1.14-.8-2.28-1.17-3.43a.56.56,0,0,1,.16-.44,1.39,1.39,0,0,0,.25-1.57,1.42,1.42,0,0,0-2.65.19,1.45,1.45,0,0,0,1,1.79l-.8,3.85L38.26,48a4.88,4.88,0,0,0,.25-.86,1.3,1.3,0,0,0-1.13-1.34,1.37,1.37,0,0,0-1.5,1,1.33,1.33,0,0,0,.84,1.59.72.72,0,0,1,.53.53c.59,1.68,1.21,3.36,1.81,5,.09,0,.12,0,.15,0a30.54,30.54,0,0,1,8.27,0c.28,0,.33-.13.4-.33.57-1.54,1.15-3.09,1.71-4.64a.92.92,0,0,1,.6-.66,1.29,1.29,0,0,0,.73-1.63,1.37,1.37,0,0,0-1.57-.89,1.33,1.33,0,0,0-1,1.47,4.24,4.24,0,0,0,.24.71l-1.82,2.13c-.22-1.31-.43-2.49-.61-3.68,0-.11.13-.28.24-.36a1.38,1.38,0,0,0,.53-1.83,1.44,1.44,0,0,0-1.28-.78,1.4,1.4,0,0,0-.76.22"/></clipPath><clipPath id="clip-path-2"><path class="cls-1" d="M39.76,55.24c-1.36.16-1.68.42-1.79,1.79,0,.29,0,.58,0,.89h10.9c0-.36,0-.66,0-1-.08-1.2-.47-1.56-1.66-1.71a32.42,32.42,0,0,0-3.8-.23,29.8,29.8,0,0,0-3.65.22"/></clipPath></defs><title>logo color ID</title><g id="Layer_2_copy_Image" data-name="Layer 2 copy Image"><path class="cls-2" d="M92.36,82.15a1.83,1.83,0,0,1-1.35-.5,1.86,1.86,0,0,1-.5-1.37,4,4,0,0,1,.08-.75,3.2,3.2,0,0,1,.22-.68H92a5.08,5.08,0,0,0-.14,1.22,1,1,0,0,0,.24.7.83.83,0,0,0,.63.26H97V77.54H98.4V81h1.2s.05,0,.05,0v1s0,.05-.05.05Zm1-4.61a.6.6,0,0,1-.46-.18.71.71,0,0,1-.17-.49.69.69,0,0,1,.17-.49.59.59,0,0,1,.46-.18.58.58,0,0,1,.45.18.69.69,0,0,1,.16.49.67.67,0,0,1-.17.49A.57.57,0,0,1,93.4,77.54Zm.79-1.5a.56.56,0,0,1-.38-.14.58.58,0,0,1-.15-.43.49.49,0,0,1,.53-.56.49.49,0,0,1,.38.15.54.54,0,0,1,.15.41.56.56,0,0,1-.15.41A.46.46,0,0,1,94.19,76Zm.79,1.5a.6.6,0,0,1-.46-.18.71.71,0,0,1-.17-.49.69.69,0,0,1,.17-.49A.59.59,0,0,1,95,76.2a.61.61,0,0,1,.45.17.72.72,0,0,1,.16.5.67.67,0,0,1-.17.49A.57.57,0,0,1,95,77.54Z"/><path class="cls-2" d="M99.51,82.15s0,0,0-.05v-1s0,0,0,0h1.17v-6h1.38v6h1.21s0,0,0,0v1a0,0,0,0,1,0,.05Z"/><path class="cls-2" d="M103.18,82.15s0,0,0-.05v-1s0,0,0,0h1.44V77.54H106V81h1.4s0,0,0,0v1s0,.05,0,.05Zm1.25,2.32a.58.58,0,0,1-.46-.17.71.71,0,0,1-.17-.49.72.72,0,0,1,.17-.5.59.59,0,0,1,.46-.18.58.58,0,0,1,.45.18.77.77,0,0,1,.16.5.69.69,0,0,1-.17.49A.57.57,0,0,1,104.43,84.47Zm1.58,0a.6.6,0,0,1-.46-.17.71.71,0,0,1-.17-.49.72.72,0,0,1,.17-.5.59.59,0,0,1,.46-.18.58.58,0,0,1,.45.18.72.72,0,0,1,.16.5.67.67,0,0,1-.17.49A.57.57,0,0,1,106,84.47Z"/><path class="cls-2" d="M107.31,82.15s0,0,0-.05v-1s0,0,0,0h1.15a1.19,1.19,0,0,1-.32-.49,2.15,2.15,0,0,1-.13-.81,1.88,1.88,0,0,1,.29-1,2.11,2.11,0,0,1,.78-.76,2.17,2.17,0,0,1,1.06-.27,2.33,2.33,0,0,1,1.11.26,1.83,1.83,0,0,1,.73.73,2,2,0,0,1,.26,1V81h1.3V79.31A2.56,2.56,0,0,0,113,77.5a2.15,2.15,0,0,0-1.7-.64A7.33,7.33,0,0,0,110,77a5.49,5.49,0,0,0-1,.27l-.31-1.06a6.86,6.86,0,0,1,1.26-.32,9.09,9.09,0,0,1,1.31-.09,3.83,3.83,0,0,1,2.76.88,3.39,3.39,0,0,1,.91,2.56v3ZM110.85,81V79.77a1.09,1.09,0,0,0-.17-.7.61.61,0,0,0-.53-.22.6.6,0,0,0-.52.26,1.12,1.12,0,0,0-.2.68c0,.83.38,1.24,1.13,1.24Z"/><path class="cls-2" d="M121.92,84.38a2.75,2.75,0,0,1-1.35-.32,2.17,2.17,0,0,1-.88-.92,3,3,0,0,1-.3-1.36,5,5,0,0,1,.12-1.08,5.12,5.12,0,0,1,.35-1h1.23a8.09,8.09,0,0,0-.23,1,6.22,6.22,0,0,0-.09,1,1.61,1.61,0,0,0,.34,1.07,1.13,1.13,0,0,0,.9.41h.28a1.34,1.34,0,0,0,1.06-.39,1.65,1.65,0,0,0,.34-1.09V75.08h1.38v6.74c0,1.71-.91,2.56-2.74,2.56Z"/><path class="cls-2" d="M129.48,81s.05,0,.05,0v1a0,0,0,0,1-.05.05h-2.55V75.08h1.39v6Z"/><path class="cls-2" d="M129.39,82.15s0,0,0-.05v-1s0,0,0,0H131V77.54h1.38v4.61Zm.75,2.32a.57.57,0,0,1-.45-.17.71.71,0,0,1-.17-.49.72.72,0,0,1,.17-.5.65.65,0,0,1,.9,0,.72.72,0,0,1,.17.5.69.69,0,0,1-.17.49A.57.57,0,0,1,130.14,84.47Zm1.58,0a.57.57,0,0,1-.45-.17.71.71,0,0,1-.17-.49.72.72,0,0,1,.17-.5.58.58,0,0,1,.45-.18.59.59,0,0,1,.46.18.82.82,0,0,1,0,1A.57.57,0,0,1,131.72,84.47Z"/><path class="cls-2" d="M135.78,84.38a5.77,5.77,0,0,1-1.09-.09,3,3,0,0,1-.89-.36l.54-1a3.59,3.59,0,0,0,.71.28,3.27,3.27,0,0,0,.7.08,1.12,1.12,0,0,0,.82-.29,1.1,1.1,0,0,0,.28-.8v0h-.92a2,2,0,0,1-1.53-.56,2.24,2.24,0,0,1-.54-1.61,2.25,2.25,0,0,1,1.41-2.14,3.81,3.81,0,0,1,1.56-.3h1.41v4.64a2.1,2.1,0,0,1-.64,1.63A2.66,2.66,0,0,1,135.78,84.38ZM136.85,81V78.66h-.3a1.25,1.25,0,0,0-.93.34,1.28,1.28,0,0,0-.33.94,1.27,1.27,0,0,0,.23.83.88.88,0,0,0,.69.26Z"/><path class="cls-2" d="M140.37,84.38a2.77,2.77,0,0,1-1.71-.52l.56-.9a1.87,1.87,0,0,0,.43.21,1.49,1.49,0,0,0,.45.06.72.72,0,0,0,.6-.28,1.13,1.13,0,0,0,.23-.72V77.54h1.38V82.3a2.14,2.14,0,0,1-.52,1.52A1.85,1.85,0,0,1,140.37,84.38Z"/><path class="cls-2" d="M152.41,81s.05,0,.05,0v1a0,0,0,0,1-.05.05h-2.82a3.05,3.05,0,0,1-2-.6,2.1,2.1,0,0,1-.71-1.68,2.25,2.25,0,0,1,.33-1.22,2.16,2.16,0,0,1,.94-.82,3.38,3.38,0,0,1,1.45-.29h.26v-.45h1.4V81Zm-2.55,0V78.66h-.24a1.39,1.39,0,0,0-1,.31,1.17,1.17,0,0,0-.35.91,1.09,1.09,0,0,0,.34.85,1.41,1.41,0,0,0,1,.3ZM149,76.5a.58.58,0,0,1-.45-.18.79.79,0,0,1,0-1,.65.65,0,0,1,.9,0,.69.69,0,0,1,.17.49.7.7,0,0,1-.17.5A.61.61,0,0,1,149,76.5Zm1.58,0a.58.58,0,0,1-.45-.18.79.79,0,0,1,0-1,.58.58,0,0,1,.45-.18.59.59,0,0,1,.46.18.69.69,0,0,1,.16.49.65.65,0,0,1-.17.49A.58.58,0,0,1,150.57,76.5Z"/><path class="cls-2" d="M152.31,82.15s0,0,0-.05v-1s0,0,0,0h1.44a1.15,1.15,0,0,1-.55-.52,1.64,1.64,0,0,1-.21-.82,2.05,2.05,0,0,1,.69-1.64,2.77,2.77,0,0,1,1.88-.6,4.34,4.34,0,0,1,.86.09,2.85,2.85,0,0,1,.71.22l-.39,1.09a3.11,3.11,0,0,0-.65-.22,2.62,2.62,0,0,0-.57-.06,1.22,1.22,0,0,0-.88.3,1.19,1.19,0,0,0-.32.88,1.34,1.34,0,0,0,.32.92,1.12,1.12,0,0,0,.87.36h1.71v1.12Z"/><path class="cls-2" d="M163.84,81s0,0,0,0v1a0,0,0,0,1,0,.05h-1.16A2.15,2.15,0,0,1,162,83.8a2.62,2.62,0,0,1-1.82.58,5.7,5.7,0,0,1-1.09-.09,3,3,0,0,1-.89-.36l.54-1a3.59,3.59,0,0,0,.71.28,3.27,3.27,0,0,0,.7.08A1.12,1.12,0,0,0,161,83a1.1,1.1,0,0,0,.28-.8v0h-.92a2,2,0,0,1-1.53-.56A2.24,2.24,0,0,1,158.3,80a2.25,2.25,0,0,1,1.41-2.14,3.81,3.81,0,0,1,1.56-.3h1.41V81Zm-2.55,0V78.66H161a1.25,1.25,0,0,0-.93.34,1.28,1.28,0,0,0-.33.94,1.27,1.27,0,0,0,.23.83.88.88,0,0,0,.69.26Z"/><path class="cls-2" d="M164.8,81a3.11,3.11,0,0,1-.25-1.28,3.15,3.15,0,0,1,.14-.87,3.59,3.59,0,0,1,.33-.81,4,4,0,0,1,1-.39,3.53,3.53,0,0,1,.89-.14,2.44,2.44,0,0,1,1.15.27,2,2,0,0,1,.81.77,2.32,2.32,0,0,1,.29,1.16,2.56,2.56,0,0,1-.18,1,1,1,0,0,0,.39.26,1.65,1.65,0,0,0,.54.07h0s.05,0,.05,0v1a0,0,0,0,1-.05.05h0A2.4,2.4,0,0,1,169,82a1.88,1.88,0,0,1-.69-.48,2.31,2.31,0,0,1-.81.46,2.73,2.73,0,0,1-.94.16h-2.83a0,0,0,0,1-.05-.05v-1s0,0,.05,0Zm1-1.09a3.41,3.41,0,0,0,.21,1.09h.35a1.25,1.25,0,0,0,.94-.38,1.2,1.2,0,0,0,.38-.91,1.22,1.22,0,0,0-.24-.79.79.79,0,0,0-.64-.29,1.77,1.77,0,0,0-.87.26A3.86,3.86,0,0,0,165.84,79.94Z"/><path class="cls-2" d="M169.83,82.15s-.05,0-.05-.05v-1s0,0,.05,0h3.75A2.63,2.63,0,0,1,173,79.7a1.68,1.68,0,0,0-.37-.88,1,1,0,0,0-.74-.25,2.45,2.45,0,0,0-.62.08,2.65,2.65,0,0,0-.62.27l-.42-1a4.07,4.07,0,0,1,1.95-.45,2.26,2.26,0,0,1,1.45.42,2.2,2.2,0,0,1,.68,1.38A3.55,3.55,0,0,0,175,81h.6s.05,0,.05,0v1s0,.05-.05.05Zm2.26,2.32a.58.58,0,0,1-.46-.17.71.71,0,0,1-.17-.49.72.72,0,0,1,.17-.5.59.59,0,0,1,.46-.18.6.6,0,0,1,.45.18.82.82,0,0,1,0,1A.57.57,0,0,1,172.09,84.47Z"/><path class="cls-2" d="M176.53,81a3.11,3.11,0,0,1-.25-1.28,3.15,3.15,0,0,1,.14-.87,3.59,3.59,0,0,1,.33-.81,4,4,0,0,1,1-.39,3.53,3.53,0,0,1,.89-.14,2.44,2.44,0,0,1,1.15.27,2,2,0,0,1,.81.77,2.32,2.32,0,0,1,.29,1.16,2.36,2.36,0,0,1-.33,1.25,2.22,2.22,0,0,1-.92.85,2.67,2.67,0,0,1-1.29.31h-2.83s0,0,0-.05v-1s0,0,0,0Zm1-1.09a3.41,3.41,0,0,0,.21,1.09h.35a1.24,1.24,0,0,0,.94-.38,1.2,1.2,0,0,0,.38-.91,1.22,1.22,0,0,0-.24-.79.79.79,0,0,0-.64-.29,1.77,1.77,0,0,0-.87.26A3.86,3.86,0,0,0,177.57,79.94Z"/><path class="cls-3" d="M64.12,70c-1.2.24-1.36.35-1.36,1.9v1.75a10,10,0,0,0,.16,2.15,27.78,27.78,0,0,1-5.55.86c-5.61,0-9.31-3-9.31-7.66,0-5.19,4.48-7.93,9.62-7.93a23.55,23.55,0,0,1,4.78.65c.06.79.19,2,.37,3.85L62,65.8a4.44,4.44,0,0,0-4.77-3.71c-3,0-5.52,2.48-5.52,6.56,0,3.4,1.81,7.08,6,7.08A3.06,3.06,0,0,0,59,75.44a1.37,1.37,0,0,0,.58-1.3v-2c0-1.68-.15-1.85-2.68-2.09v-.79h7.19Z"/><path class="cls-3" d="M19.29,20.74l-.2,0c-1,.19-1.34.06-1.76-.32s-.58-.59-.92-.92a.54.54,0,0,0-.6-.16l-.15,0,.28,1c.17.6.26.64.85.55a2.5,2.5,0,0,1,.07.26c-.92.25-1.37.37-2.29.64a2.5,2.5,0,0,1-.07-.26c.54-.22.62-.31.45-.91-.31-1.11-.47-1.67-.79-2.78-.16-.59-.26-.65-.86-.53,0-.1,0-.15-.07-.26l2.21-.61a2.58,2.58,0,0,1,1.52-.1,1.14,1.14,0,0,1,.77.84,1.3,1.3,0,0,1-.67,1.44c.17.19.58.6.9.88a7.42,7.42,0,0,0,.79.66,1.14,1.14,0,0,0,.53.19c0,.1,0,.15,0,.26m-3.52-1.66a1.31,1.31,0,0,0,.74-.41,1.1,1.1,0,0,0,.15-1,1,1,0,0,0-1.22-.82.63.63,0,0,0-.35.18c0,.06,0,.14,0,.29.2.71.29,1.07.49,1.78l.19-.05"/><path class="cls-3" d="M21.29,15.06A2.58,2.58,0,0,1,24.5,17a2.67,2.67,0,0,1-2.26,3.13,2.59,2.59,0,1,1-.95-5.07h0m-.09.35c-.83.18-1.35,1.09-1.06,2.4s1.16,2.17,2.18,2c.76-.16,1.28-1,1-2.34s-1.17-2.22-2.13-2h0"/><path class="cls-3" d="M29.46,14.07a1.11,1.11,0,0,0-.9.77,13.9,13.9,0,0,0-.69,1.58.81.81,0,0,0-.06.53c.05.38.08.58.14,1,.1.69.16.72.87.67,0,.11,0,.16,0,.26l-2.52.39c0-.1,0-.15,0-.26.66-.16.73-.21.62-.9-.05-.33-.08-.49-.13-.82a.74.74,0,0,0-.18-.39c-.28-.37-.66-.83-1.26-1.5-.4-.45-.55-.51-1-.5l0-.26c.93-.17,1.39-.25,2.32-.39l0,.26c-.52.15-.5.26-.32.5.37.46.79,1,1.19,1.47.16-.47.47-1.23.6-1.69s.07-.43-.53-.42c0-.11,0-.16,0-.26.75-.12,1.13-.17,1.88-.27,0,.11,0,.16,0,.27"/><path class="cls-3" d="M32.49,18.39c0-.1,0-.16,0-.26.46-.13.48-.22.33-.53s-.25-.52-.42-.83l-1.53.17c-.06.26-.13.56-.19.86s0,.47.53.47l0,.27c-.69.08-1,.12-1.74.22,0-.11,0-.16,0-.27.52-.13.59-.24.78-.92.45-1.61.68-2.41,1.18-4l.41-.15c.67,1.26,1.3,2.52,1.93,3.76.33.64.44.73,1,.75,0,.11,0,.16,0,.27l-2.23.21M31.4,14.83h0c-.17.57-.32,1.14-.45,1.69l1.25-.14c-.31-.62-.46-.93-.78-1.55"/><path class="cls-3" d="M39.12,16.6c0,.33-.19,1.1-.24,1.32-1.53.06-2.29.11-3.82.23,0-.1,0-.16,0-.26.69-.12.78-.16.73-.82-.09-1.15-.13-1.72-.21-2.87,0-.65-.14-.69-.78-.69,0-.11,0-.16,0-.27,1-.08,1.51-.11,2.51-.17l0,.27c-.63.09-.7.14-.66.79.08,1.17.11,1.76.19,2.94,0,.36.06.49.22.54a1.84,1.84,0,0,0,.6,0,1.08,1.08,0,0,0,.8-.3,2.59,2.59,0,0,0,.41-.81l.28.07"/><path class="cls-3" d="M47.37,13.24c-.65,0-.69.08-.71.72,0,1.16,0,1.73-.09,2.89,0,.65,0,.69.65.77a2.44,2.44,0,0,0,0,.27c-1,0-1.44-.05-2.41-.06v-.27c.64,0,.69-.09.71-.74s0-.83,0-1.39c-.91,0-1.36,0-2.27,0V16.8c0,.65.06.69.65.75v.27c-.93,0-1.4,0-2.33,0a2.53,2.53,0,0,0,0-.27c.58-.06.65-.1.65-.76,0-1.15,0-1.73,0-2.88,0-.65-.08-.7-.71-.74a2.35,2.35,0,0,1,0-.27c1,0,1.48,0,2.47,0v.27c-.61.05-.67.1-.67.74V15c.91,0,1.36,0,2.27,0l0-1.11c0-.64,0-.69-.67-.75v-.27c1,0,1.48,0,2.47.06a2.44,2.44,0,0,0,0,.27"/><path class="cls-3" d="M52.08,16.91c-.09.34-.31,1-.39,1.24-1.6-.13-2.4-.18-4-.24a2.44,2.44,0,0,1,0-.27c.68,0,.76-.07.79-.72.06-1.15.08-1.72.14-2.87,0-.67,0-.71-.63-.78V13c1.55.06,2.33.11,3.88.23,0,.14,0,.67,0,1.16h-.29a1.38,1.38,0,0,0-.29-.68,1.09,1.09,0,0,0-.78-.25l-.42,0c-.31,0-.34,0-.35.25,0,.64-.06,1-.09,1.6l.54,0c.68,0,.79,0,.93-.52l.29,0c0,.61-.07.91-.11,1.53l-.29,0c-.06-.55-.17-.59-.84-.64l-.55,0c0,.51,0,.77-.07,1.28,0,.36,0,.56.15.64a2.29,2.29,0,0,0,.71.11,1.16,1.16,0,0,0,.89-.17,2.68,2.68,0,0,0,.5-.72l.28.09"/><path class="cls-3" d="M55.22,18.5a2.48,2.48,0,0,0,0-.27c.48,0,.52-.11.44-.44s-.13-.57-.23-.9c-.61-.08-.92-.11-1.53-.17-.12.24-.25.51-.37.8s-.15.44.42.57a2.48,2.48,0,0,0,0,.27l-1.75-.17,0-.26c.54,0,.63-.1,1-.73.8-1.47,1.2-2.21,2-3.67l.43,0c.38,1.37.72,2.74,1.07,4.09.17.7.26.81.75.94,0,.11,0,.16,0,.27-.89-.12-1.34-.18-2.23-.28m-.28-3.72h0c-.28.51-.56,1-.81,1.55l1.25.14c-.16-.68-.25-1-.42-1.69"/><path class="cls-3" d="M62.1,18.2c-.13.32-.43,1-.52,1.23-1.52-.27-2.28-.39-3.8-.6l0-.27c.7,0,.79,0,.89-.64.16-1.14.25-1.71.42-2.85.09-.64,0-.7-.61-.84l0-.26c1,.14,1.5.21,2.49.38a2.51,2.51,0,0,1,0,.27c-.63-.06-.71,0-.82.62-.18,1.16-.27,1.75-.46,2.91-.06.36,0,.5.1.58a2.05,2.05,0,0,0,.58.16,1.09,1.09,0,0,0,.85-.12,2.67,2.67,0,0,0,.58-.7l.26.13"/><path class="cls-3" d="M66.74,16.8a1.7,1.7,0,0,0-.19-.86c-.11-.17-.3-.26-.82-.37l-.35-.07c-.29,1.4-.44,2.09-.73,3.49-.13.64-.06.69.62.9a2,2,0,0,0-.06.26c-1-.22-1.52-.32-2.53-.51l0-.27c.67.07.76.05.89-.59l.69-3.5-.26,0c-.73-.14-.88-.06-1,0a2,2,0,0,0-.48.7l-.29,0c.13-.55.27-1.1.36-1.47l.2,0c.09.2.2.23.43.28,1.33.24,2,.38,3.31.67a.59.59,0,0,0,.52-.08l.18,0c-.06.31-.16,1-.23,1.48l-.29-.05"/><path class="cls-3" d="M73.49,17.45c-.64-.13-.69-.1-.87.53-.32,1.11-.47,1.66-.79,2.77-.18.63-.13.69.44.91,0,.1,0,.16-.07.26-.93-.27-1.4-.4-2.34-.65a2.5,2.5,0,0,0,.07-.26c.64.11.7.09.88-.54s.21-.81.36-1.34c-.88-.25-1.32-.36-2.21-.58l-.33,1.35c-.16.63-.12.68.44.89,0,.1,0,.15-.06.26-.91-.24-1.37-.35-2.28-.56a2.44,2.44,0,0,0,.06-.26c.58.07.66.05.81-.58.27-1.12.4-1.69.67-2.81.15-.63.09-.69-.52-.89l.06-.26c1,.22,1.45.34,2.41.59,0,.1,0,.16-.06.26-.61-.1-.68-.07-.84.56-.1.43-.16.64-.26,1.07.89.22,1.33.33,2.21.58l.29-1.07c.17-.62.13-.68-.47-.9a2,2,0,0,0,.07-.26c1,.26,1.44.39,2.4.67,0,.1,0,.16-.07.26"/><path class="cls-3" d="M82.53,13.82q-.63,8.84-1.23,17.66L80.43,44,79.2,61.78c-.12,1.74-.17,3.5-.41,5.22a27.61,27.61,0,0,1-3.18,8.82,43.57,43.57,0,0,1-9.58,12c-5.68,5.1-12.18,8.91-18.88,12.44-.89.47-1.78,1-2.69,1.41a.89.89,0,0,1-.66,0,97.82,97.82,0,0,1-23-14.3A39,39,0,0,1,9,70.44a19.38,19.38,0,0,1-1-5.29Q7.17,52,6.27,38.82q-.61-9-1.2-17.93Q4.68,15.14,4.28,9.4c0-.16,0-.31,0-.53l1.64-.42c7.91-2,13.87-3.51,22.43-4.39,2.94-.3,4.08-.51,7-.69.21,0,5.52-.25,8.17-.25.19,0,7.9.24,8.08.25,3.69.25,3.75.35,7.42.82A160.52,160.52,0,0,1,77.89,8c1.65.42,3.3.87,4.94,1.31,0,.28-.22,3.3-.3,4.53m-73.44-1c0,.21,0,.31,0,.41q.5,7.05,1,14.11.54,7.79,1.09,15.57.66,9.51,1.34,19a27.2,27.2,0,0,0,.88,6.21,33.78,33.78,0,0,0,9.15,14.49A77.51,77.51,0,0,0,33.36,91a57.51,57.51,0,0,0,10.09,5.62,1,1,0,0,0,1-.05,101.72,101.72,0,0,0,14.76-9.34,45.14,45.14,0,0,0,9.53-9.29A28.69,28.69,0,0,0,74,67a43.35,43.35,0,0,0,.62-5.71c.44-5.78.83-11.56,1.23-17.35.3-4.19.58-8.39.88-12.59q.6-8.64,1.22-17.29a.58.58,0,0,0-.5-.73A113.78,113.78,0,0,0,46.54,8.47,133.29,133.29,0,0,0,14.25,11.6c-1.72.38-3.42.81-5.16,1.22"/><path class="cls-2" d="M33.69,75.73a9.1,9.1,0,0,1-6.6-15.37A10,10,0,1,0,40.9,72.16a9.08,9.08,0,0,1-7.21,3.57"/><path class="cls-3" d="M43.66,10.05h-.49a133.88,133.88,0,0,0-32.43,4.21c0,.37,0,.66,0,1q.45,6.12.89,12.26.49,6.85,1,13.72.7,9.91,1.42,19.83a34.58,34.58,0,0,0,1,7.08,28.26,28.26,0,0,0,7.5,12.39,82.52,82.52,0,0,0,12.57,10A37.62,37.62,0,0,0,43,94.77a1.38,1.38,0,0,0,.42.09,1.27,1.27,0,0,0,.42-.09,37.45,37.45,0,0,0,7.89-4.23,82,82,0,0,0,12.56-10,28.19,28.19,0,0,0,7.51-12.39,35.28,35.28,0,0,0,1-7.08q.7-9.91,1.42-19.83.5-6.86,1-13.72.44-6.14.88-12.26c0-.3,0-.59,0-1a133.74,133.74,0,0,0-32.42-4.21M74.12,27.4q-.24,3.53-.5,7c-.15,2.23-.31,4.47-.47,6.7-.2,2.84-.41,5.68-.61,8.52-.14,1.89-.27,3.78-.41,5.67H52.43l-.29,1.25,19.9,0c-.11,1.45-.21,2.9-.31,4.34l0,.31a32.52,32.52,0,0,1-.92,6.56,27,27,0,0,1-7.24,11.94,81,81,0,0,1-12.4,9.91,38,38,0,0,1-7.1,3.89V63.67h-.59l-.68,0v29.9a37.64,37.64,0,0,1-7.1-3.89,81.14,81.14,0,0,1-12.41-9.91A27.15,27.15,0,0,1,16,67.82a32.52,32.52,0,0,1-.91-6.56l0-.31c-.1-1.44-.21-2.89-.31-4.34l19.64-.11-.07-1.13-19.66,0c-.14-1.89-.27-3.78-.41-5.67-.2-2.84-.41-5.68-.61-8.52l-.48-6.7q-.24-3.51-.5-7c0-.77-.11-1.54-.16-2.31a132.83,132.83,0,0,1,30.24-4V40h1.27V21.06a133,133,0,0,1,30.24,4c-.05.77-.11,1.54-.17,2.31M75,15.14c-.12,1.73-.25,3.46-.38,5.2-.08,1.23-.17,2.46-.26,3.69a134.14,134.14,0,0,0-31-4,134,134,0,0,0-30.95,4l-.27-3.69c-.12-1.74-.25-3.47-.37-5.2v-.06a132.24,132.24,0,0,1,31.38-4h.43a132.25,132.25,0,0,1,31.39,4v.06"/><path class="cls-4" d="M33.35,40.9a.62.62,0,0,1,0,.12c.1,1.36.19,2.72.29,4.08s.21,3,.31,4.5l.39,5.49a8.32,8.32,0,0,0,.26,1.79,9.75,9.75,0,0,0,2.65,4.19,22.83,22.83,0,0,0,3.12,2.42,17.41,17.41,0,0,0,2.92,1.63.33.33,0,0,0,.29,0,30.11,30.11,0,0,0,4.27-2.7,13.23,13.23,0,0,0,2.76-2.68,8.16,8.16,0,0,0,1.52-3.15,13,13,0,0,0,.18-1.66c.13-1.67.24-3.34.36-5,.08-1.21.16-2.42.25-3.63.12-1.67.23-3.34.35-5a.17.17,0,0,0-.14-.21,33.05,33.05,0,0,0-8.94-1.42,38.69,38.69,0,0,0-9.35.91l-1.5.35"/><path class="cls-3" d="M52.4,40.62a32.31,32.31,0,0,0-5-.87c-1-.09-1.36-.1-2.33-.17l-1.81,0h-1.2c-.78.05-1.57.08-2.35.15a38.83,38.83,0,0,0-6.34,1.05l-.44.11V41l.21,3c.11,1.58.21,3.15.32,4.73q.23,3.48.47,7a5.08,5.08,0,0,0,.25,1.39,10.28,10.28,0,0,0,3.11,4.48,26.33,26.33,0,0,0,6.08,3.78.25.25,0,0,0,.17,0l.72-.37a24.55,24.55,0,0,0,5-3.29,11.24,11.24,0,0,0,2.53-3.17,7.16,7.16,0,0,0,.84-2.33c.06-.45.08-.91.11-1.37.11-1.57.22-3.13.32-4.7.08-1.1.16-2.2.23-3.31l.33-4.66c0-.33.08-1.12.08-1.2Zm-.32,6.18c-.07,1.11-.15,2.21-.23,3.32-.1,1.53-.21,3.06-.32,4.58a10.73,10.73,0,0,1-.17,1.51A7.54,7.54,0,0,1,50,59.09a12.24,12.24,0,0,1-2.52,2.46A27.23,27.23,0,0,1,43.56,64a.25.25,0,0,1-.25,0,15.84,15.84,0,0,1-2.67-1.49,20.3,20.3,0,0,1-2.85-2.21,9,9,0,0,1-2.41-3.83,7,7,0,0,1-.24-1.64c-.11-1.67-.23-3.34-.35-5-.1-1.37-.19-2.74-.29-4.11s-.17-2.48-.26-3.73a.46.46,0,0,0,0-.1c.46-.11.91-.23,1.37-.33a34.89,34.89,0,0,1,8.52-.82A30.09,30.09,0,0,1,52.28,42a.15.15,0,0,1,.13.19Z"/><path class="cls-1" d="M44.86,43.72a1.43,1.43,0,0,0-.36,2.09c.09.13.22.33.18.45-.37,1.2-.77,2.4-1.18,3.63-.07-.07-.11-.1-.12-.13-.4-1.14-.8-2.28-1.17-3.43a.56.56,0,0,1,.16-.44,1.39,1.39,0,0,0,.25-1.57,1.42,1.42,0,0,0-2.65.19,1.45,1.45,0,0,0,1,1.79l-.8,3.85L38.26,48a4.88,4.88,0,0,0,.25-.86,1.3,1.3,0,0,0-1.13-1.34,1.37,1.37,0,0,0-1.5,1,1.33,1.33,0,0,0,.84,1.59.72.72,0,0,1,.53.53c.59,1.68,1.21,3.36,1.81,5,.09,0,.12,0,.15,0a30.54,30.54,0,0,1,8.27,0c.28,0,.33-.13.4-.33.57-1.54,1.15-3.09,1.71-4.64a.92.92,0,0,1,.6-.66,1.29,1.29,0,0,0,.73-1.63,1.37,1.37,0,0,0-1.57-.89,1.33,1.33,0,0,0-1,1.47,4.24,4.24,0,0,0,.24.71l-1.82,2.13c-.22-1.31-.43-2.49-.61-3.68,0-.11.13-.28.24-.36a1.38,1.38,0,0,0,.53-1.83,1.44,1.44,0,0,0-1.28-.78,1.4,1.4,0,0,0-.76.22"/><g class="cls-5"><rect class="cls-1" x="35.71" y="43.45" width="15.43" height="10.58"/></g><path class="cls-1" d="M39.76,55.24c-1.36.16-1.68.42-1.79,1.79,0,.29,0,.58,0,.89h10.9c0-.36,0-.66,0-1-.08-1.2-.47-1.56-1.66-1.71a32.42,32.42,0,0,0-3.8-.23,29.8,29.8,0,0,0-3.65.22"/><g class="cls-6"><rect class="cls-1" x="37.95" y="55.02" width="10.94" height="2.9"/></g><rect class="cls-3" x="89.39" y="70.12" width="93.54" height="0.71"/><path class="cls-3" d="M103.39,29.89h-.49c-2.38-.11-3.1-.64-3.85-1.79-.49-.74-1-1.72-1.52-2.69a1.29,1.29,0,0,0-1.26-.76h-.36v2.63c0,1.5.18,1.66,1.59,1.81v.65H91.87v-.65c1.39-.15,1.63-.31,1.63-1.81v-7c0-1.46-.19-1.67-1.55-1.78v-.65h5.18a5.72,5.72,0,0,1,3.39.69A2.82,2.82,0,0,1,101.76,21a3.14,3.14,0,0,1-2.32,3A28.85,28.85,0,0,0,101,26.53a15.31,15.31,0,0,0,1.44,2,2.44,2.44,0,0,0,1.11.75Zm-7-6a2.85,2.85,0,0,0,1.88-.48,2.69,2.69,0,0,0,.9-2.19c0-1.95-1.15-2.66-2.21-2.66a1.39,1.39,0,0,0-.87.2c-.13.11-.16.31-.16.68v4.45Z"/><path class="cls-3" d="M110.8,17.58a6.1,6.1,0,0,1,6.35,6.07c0,4-3,6.37-6.6,6.37a6.18,6.18,0,0,1-6.49-6.22c0-3.18,2.39-6.22,6.72-6.22Zm-.38.79c-1.92,0-3.53,1.87-3.53,5.11s1.53,5.74,4,5.74c1.83,0,3.41-1.69,3.41-5.06,0-3.64-1.64-5.79-3.89-5.79Z"/><path class="cls-3" d="M129.45,18.51a2.61,2.61,0,0,0-2.27,1.55c-.67,1.06-1.18,1.83-2.09,3.53a2.09,2.09,0,0,0-.33,1.25v2.34c0,1.68.13,1.79,1.8,1.91v.64h-6.07v-.64c1.6-.12,1.79-.23,1.79-1.91v-2a1.8,1.8,0,0,0-.26-1c-.52-1-1.22-2.24-2.31-4.08-.72-1.24-1-1.44-2.08-1.6v-.65H123v.65c-1.24.16-1.24.42-.9,1.06.65,1.25,1.43,2.59,2.17,4,.55-1.08,1.51-2.79,2-3.84.31-.75.3-1-1.08-1.18v-.65h4.33Z"/><path class="cls-3" d="M135.28,29.73v-.65c1.11-.19,1.19-.4.91-1.17-.18-.54-.47-1.33-.78-2.11h-3.62c-.21.6-.48,1.27-.69,2s-.24,1.1,1.12,1.27v.65H128l0-.65c1.27-.15,1.47-.37,2.11-1.95L134,17.82l1-.24c1.2,3.19,2.36,6.37,3.58,9.49.63,1.61.88,1.86,2.07,2v.65Zm-1.62-8.84h0c-.52,1.31-1,2.64-1.5,3.93h2.95Z"/><path class="cls-3" d="M151.26,26.58c-.15.8-.55,2.64-.69,3.15h-9.15v-.65c1.66-.14,1.86-.24,1.86-1.82v-7c0-1.56-.2-1.67-1.65-1.79v-.65h5.73v.65c-1.43.12-1.61.23-1.61,1.79v7.13c0,.86.07,1.18.45,1.34a4.78,4.78,0,0,0,1.43.14,2.46,2.46,0,0,0,1.92-.62,6.21,6.21,0,0,0,1.06-1.91Z"/><path class="cls-3" d="M105.3,36c-1.47.12-1.56.23-1.56,1.79v7c0,1.57.15,1.67,1.59,1.81v.65H99.6v-.65c1.52-.14,1.65-.24,1.65-1.81V41.4H96v3.36c0,1.57.14,1.67,1.53,1.81v.65H92v-.65c1.37-.14,1.55-.24,1.55-1.81v-7c0-1.56-.18-1.67-1.63-1.79v-.65h5.62V36c-1.38.12-1.52.23-1.52,1.79v2.66h5.28V37.79c0-1.56-.13-1.67-1.56-1.79v-.65h5.61Z"/><path class="cls-3" d="M116.71,44.15c-.12.83-.51,2.52-.66,3.07h-9.57v-.65c1.62-.14,1.79-.24,1.79-1.81V37.82c0-1.62-.17-1.71-1.52-1.82v-.65h8.84c0,.32.1,1.59.17,2.78l-.67.09a3.53,3.53,0,0,0-.78-1.6,2.46,2.46,0,0,0-1.82-.46h-.95c-.72,0-.77,0-.77.63v3.89H112c1.58,0,1.84-.12,2.08-1.39h.67V43h-.67c-.24-1.31-.5-1.39-2.08-1.39h-1.27v3.1c0,.87.06,1.35.45,1.51a5.21,5.21,0,0,0,1.71.17,2.72,2.72,0,0,0,2.07-.57,6.42,6.42,0,0,0,1-1.82Z"/><path class="cls-3" d="M124.5,47.22v-.65c1.11-.19,1.18-.4.91-1.18-.19-.53-.47-1.32-.79-2.1H121c-.21.59-.47,1.27-.68,2s-.24,1.1,1.12,1.28v.65h-4.18l0-.65c1.28-.15,1.48-.38,2.11-2l3.84-9.31,1-.24c1.19,3.19,2.36,6.37,3.58,9.49.62,1.61.87,1.86,2.07,2v.65Zm-1.62-8.84h0c-.53,1.31-1,2.63-1.5,3.93h2.94Z"/><path class="cls-3" d="M140.47,44.07c-.14.8-.54,2.64-.68,3.15h-9.15v-.65c1.66-.14,1.86-.24,1.86-1.82v-7c0-1.56-.2-1.67-1.65-1.79v-.65h5.73V36c-1.44.12-1.61.23-1.61,1.79v7.13c0,.86.06,1.17.45,1.34a4.79,4.79,0,0,0,1.42.13,2.43,2.43,0,0,0,1.92-.61,6.31,6.31,0,0,0,1.07-1.91Z"/><path class="cls-3" d="M150.37,38.53a4.22,4.22,0,0,0-.83-1.93c-.35-.33-.8-.44-2-.44h-.83v8.6c0,1.57.2,1.67,1.86,1.81v.65h-6.12v-.65c1.58-.14,1.78-.24,1.78-1.81v-8.6h-.6c-1.7,0-2,.22-2.26.51a4.29,4.29,0,0,0-.8,1.87h-.68c.07-1.36.17-2.72.21-3.65h.46c.29.42.54.46,1.07.46h7.67a1.32,1.32,0,0,0,1.1-.46h.43c0,.77.13,2.44.22,3.6Z"/><path class="cls-3" d="M165.62,36c-1.47.12-1.56.23-1.56,1.79v7c0,1.57.15,1.67,1.59,1.81v.65h-5.73v-.65c1.52-.14,1.65-.24,1.65-1.81V41.4h-5.28v3.36c0,1.57.13,1.67,1.53,1.81v.65h-5.55v-.65c1.37-.14,1.55-.24,1.55-1.81v-7c0-1.56-.18-1.67-1.63-1.79v-.65h5.62V36c-1.39.12-1.52.23-1.52,1.79v2.66h5.28V37.79c0-1.56-.13-1.67-1.56-1.79v-.65h5.61Z"/><path class="cls-3" d="M104.61,59.69c-.94.19-1.07.27-1.07,1.51v1.4a8,8,0,0,0,.13,1.71,21.24,21.24,0,0,1-4.34.68C94.93,65,92,62.6,92,58.89c0-4.14,3.5-6.33,7.52-6.33a17.8,17.8,0,0,1,3.75.53c0,.62.15,1.58.28,3.07l-.68.15a3.49,3.49,0,0,0-3.73-3c-2.33,0-4.32,2-4.32,5.23,0,2.71,1.41,5.64,4.65,5.64a2.3,2.3,0,0,0,1.11-.23,1.08,1.08,0,0,0,.45-1V61.35c0-1.34-.11-1.47-2.09-1.66v-.64h5.63Z"/><path class="cls-3" d="M117.26,64.87h-.5c-2.37-.12-3.09-.64-3.84-1.79-.49-.75-1-1.72-1.53-2.7a1.31,1.31,0,0,0-1.26-.76h-.36v2.64c0,1.49.19,1.66,1.6,1.81v.65h-5.63v-.65c1.39-.15,1.62-.32,1.62-1.81v-7c0-1.46-.18-1.67-1.54-1.79v-.64H111a5.81,5.81,0,0,1,3.39.68A2.86,2.86,0,0,1,115.63,56a3.14,3.14,0,0,1-2.33,3c.28.53,1,1.74,1.53,2.58a16.57,16.57,0,0,0,1.43,2,2.55,2.55,0,0,0,1.11.75Zm-7-6a2.88,2.88,0,0,0,1.89-.49,2.7,2.7,0,0,0,.9-2.18c0-1.95-1.15-2.66-2.21-2.66a1.41,1.41,0,0,0-.88.2c-.12.11-.16.31-.16.67v4.46Z"/><path class="cls-3" d="M124.66,52.56A6.09,6.09,0,0,1,131,58.63c0,3.95-3,6.36-6.6,6.36a6.19,6.19,0,0,1-6.49-6.21c0-3.19,2.4-6.22,6.73-6.22Zm-.37.79c-1.93,0-3.54,1.87-3.54,5.1s1.54,5.74,4,5.74c1.84,0,3.41-1.68,3.41-5,0-3.65-1.63-5.79-3.88-5.79Z"/><path class="cls-3" d="M145.24,53.48c-1,.07-1.5.47-1.6,1.12a13.49,13.49,0,0,0-.16,2.47v2c0,2-.31,3.51-1.38,4.61A4.93,4.93,0,0,1,138.64,65a5.54,5.54,0,0,1-3.32-.93c-1.07-.83-1.61-2.22-1.61-4.36V55.49c0-1.77-.2-1.88-1.6-2v-.64h5.68v.64c-1.4.13-1.6.24-1.6,2v3.8c0,2.76,1,4.45,3.09,4.45,2.31,0,3.27-1.73,3.27-4.8V57.07a12.2,12.2,0,0,0-.2-2.49c-.1-.63-.54-1-1.81-1.1v-.64h4.7Z"/><path class="cls-3" d="M151.33,52.84a5.68,5.68,0,0,1,3.25.71,3.12,3.12,0,0,1,1.34,2.68c0,2.47-1.84,3.57-3.75,3.81a6.07,6.07,0,0,1-.8,0l-1.31-.32v2.49c0,1.57.17,1.67,1.8,1.81v.65H146v-.65c1.43-.14,1.62-.24,1.62-1.81v-7c0-1.56-.19-1.67-1.5-1.8v-.64ZM150.06,59a3.06,3.06,0,0,0,1,.17c.72,0,2.19-.48,2.19-2.94,0-2-1.19-2.71-2.35-2.71a1.1,1.1,0,0,0-.71.19.73.73,0,0,0-.16.56Z"/><path class="cls-3" d="M70.22,32c-2,.18-1.87.35-1.87,2.69V43c0,2.36,0,2.51,1.91,2.71v1H62.7v-1C64.78,45.48,65,45.33,65,43V39H59.58V43c0,2.36.19,2.51,2.09,2.71v1H54.33v-1c1.87-.2,1.88-.35,1.88-2.71V34.73c0-2.34,0-2.51-2-2.69v-1h7.42v1c-1.88.18-2.07.35-2.07,2.69v2.89H65V34.73c0-2.34-.17-2.51-2.13-2.69v-1h7.4Z"/><path class="cls-3" d="M32.15,46.65h-.68c-3.27-.15-4.27-.83-5.3-2.31-.67-1-1.34-2.24-2.1-3.5a1.82,1.82,0,0,0-1.74-1h-.49v3.41c0,1.94.25,2.15,2.2,2.34v.84H16.28V45.6c1.91-.19,2.24-.4,2.24-2.34v-9c0-1.9-.26-2.17-2.14-2.32v-.84h7.14c2.32,0,3.63.23,4.68.89a3.62,3.62,0,0,1,1.7,3.16c0,2.1-1.5,3.23-3.2,3.85.38.69,1.33,2.26,2.1,3.34a20.45,20.45,0,0,0,2,2.59,3.34,3.34,0,0,0,1.53,1Zm-9.68-7.74a4.12,4.12,0,0,0,2.6-.63,3.41,3.41,0,0,0,1.24-2.83c0-2.53-1.59-3.45-3-3.45a2,2,0,0,0-1.2.26c-.17.15-.22.41-.22.87v5.78Z"/></g></svg>