<?xml version="1.0" standalone="no"?>
<!DOCTYPE svg PUBLIC "-//W3C//DTD SVG 20010904//EN"
 "http://www.w3.org/TR/2001/REC-SVG-20010904/DTD/svg10.dtd">
<svg version="1.0" xmlns="http://www.w3.org/2000/svg"
 width="1124.000000pt" height="1124.000000pt" viewBox="0 0 1124.000000 1124.000000"
 preserveAspectRatio="xMidYMid meet">
<metadata>
Created by potrace 1.11, written by Peter Selinger 2001-2013
</metadata>
<g transform="translate(0.000000,1124.000000) scale(0.100000,-0.100000)"
fill="#000000" stroke="none">
<path d="M5320 11153 c-715 -26 -692 -24 -1275 -88 -722 -80 -1133 -149 -1780
-299 -303 -70 -1010 -248 -1018 -255 -4 -4 13 -304 38 -667 24 -362 88 -1298
140 -2079 52 -781 97 -1451 100 -1490 3 -38 37 -542 75 -1120 71 -1062 89
-1252 135 -1422 49 -184 151 -430 284 -688 311 -604 700 -1056 1342 -1561 559
-440 1149 -812 1849 -1164 329 -165 471 -230 505 -230 52 0 824 420 1252 681
391 239 609 390 908 630 655 525 1094 1046 1421 1687 159 313 260 596 303 852
12 73 37 336 46 480 7 124 167 2440 305 4432 61 867 110 1585 110 1596 0 22
-56 39 -645 187 -836 211 -1403 322 -2135 420 -454 60 -616 73 -1175 90 -445
14 -591 15 -785 8z m805 -603 c1045 -39 1976 -175 2910 -425 250 -67 436 -124
453 -137 19 -16 16 -65 -43 -894 -30 -423 -86 -1223 -125 -1779 -88 -1257
-208 -2948 -216 -3035 -42 -449 -201 -871 -499 -1325 -349 -531 -790 -954
-1552 -1488 -478 -336 -1274 -807 -1363 -807 -36 0 -255 95 -435 189 -369 193
-924 555 -1375 897 -636 482 -1067 963 -1359 1515 -124 237 -248 567 -290 774
-32 160 -24 58 -306 4065 -41 586 -89 1266 -106 1512 -18 247 -30 450 -28 452
9 10 692 166 914 210 1139 224 2298 317 3420 276z"/>
<path d="M5140 10373 c-996 -42 -1883 -163 -2876 -393 -319 -74 -294 -65 -294
-104 0 -53 368 -5188 390 -5441 31 -352 64 -518 155 -771 209 -580 586 -1066
1266 -1635 336 -281 859 -654 1214 -867 215 -129 583 -302 641 -302 30 0 244
90 386 162 290 146 665 391 1093 711 341 256 577 459 841 722 415 414 667 805
827 1285 78 233 105 389 137 785 32 399 380 5285 380 5337 0 56 33 43 -315
123 -929 216 -1852 344 -2775 385 -198 9 -893 11 -1070 3z m995 -123 c780 -31
1547 -123 2340 -281 280 -55 686 -147 697 -157 4 -4 -9 -216 -27 -472 -19
-256 -35 -478 -35 -494 0 -34 35 -39 -350 47 -1405 315 -2709 427 -3948 342
-799 -55 -1683 -192 -2500 -386 -68 -16 -129 -29 -135 -29 -11 0 -24 155 -80
970 -2 24 3 26 203 72 1293 302 2624 436 3835 388z m-575 -2145 l0 -1035 -72
0 c-198 0 -536 -38 -767 -85 -105 -21 -252 -55 -258 -60 -3 -2 93 -1451 103
-1557 l6 -68 -1076 0 c-592 0 -1076 1 -1077 3 -1 1 -56 763 -123 1692 -109
1505 -120 1691 -107 1697 23 11 379 91 633 143 737 150 1466 248 2123 285 274
15 294 16 463 18 l152 2 0 -1035z m585 1025 c752 -36 1488 -130 2280 -290 283
-58 662 -143 669 -151 2 -2 -38 -589 -89 -1304 -51 -715 -95 -1334 -98 -1375
-37 -529 -49 -687 -52 -697 -4 -10 -230 -13 -1090 -13 l-1086 0 6 58 c8 77
105 1489 105 1528 l0 30 -172 42 c-268 65 -474 94 -765 108 l-143 7 0 1033 0
1034 113 0 c61 0 207 -5 322 -10z m-205 -2210 c222 -20 662 -108 693 -139 9
-9 -86 -1432 -104 -1546 -46 -296 -315 -590 -775 -849 -54 -31 -108 -56 -120
-56 -28 0 -174 76 -281 146 -210 136 -388 292 -475 415 -58 80 -122 213 -143
294 -18 68 -129 1605 -117 1616 20 20 397 90 577 108 61 6 124 13 140 15 72 8
500 5 605 -4z m-1341 -1812 c37 -128 157 -321 269 -435 126 -127 391 -314 584
-413 l108 -55 0 -1592 c0 -951 -4 -1593 -9 -1593 -18 0 -239 104 -346 163
-440 242 -1101 717 -1535 1103 -445 394 -719 732 -914 1125 -163 328 -236 591
-271 984 -17 187 -55 693 -55 731 l0 24 1078 0 1079 0 12 -42z m4241 2 c0
-164 -67 -896 -96 -1043 -59 -301 -201 -648 -382 -932 -214 -335 -562 -699
-1034 -1082 -384 -312 -923 -684 -1253 -866 -117 -65 -335 -167 -355 -167 -7
0 -10 522 -10 1589 l0 1590 133 75 c337 190 537 357 672 561 64 97 107 181
131 258 l18 57 1088 0 1088 0 0 -40z"/>
<path d="M5422 10043 c2 -11 14 -19 31 -21 15 -2 32 -12 37 -22 6 -12 9 -101
8 -232 l-3 -213 -32 -10 c-23 -6 -33 -15 -33 -28 0 -18 5 -19 61 -13 34 3 95
6 135 6 54 0 74 4 74 13 0 7 -14 17 -32 22 -40 12 -46 31 -47 148 l-1 87 73 0
c39 0 96 -3 125 -6 l52 -7 0 -97 c0 -105 -11 -130 -58 -130 -15 0 -22 -6 -22
-20 0 -19 7 -20 136 -20 123 0 135 2 132 17 -2 10 -12 19 -23 21 -41 7 -45 26
-39 211 7 257 8 259 50 267 35 6 46 27 18 38 -9 3 -72 6 -140 6 -104 0 -124
-2 -124 -15 0 -9 13 -18 31 -22 41 -8 52 -40 44 -130 l-7 -73 -124 1 -124 1 0
73 c0 94 10 121 49 130 17 4 31 13 31 21 0 11 -26 14 -141 14 -128 0 -140 -2
-137 -17z"/>
<path d="M6152 10033 c2 -10 12 -19 23 -21 45 -9 48 -19 41 -157 -15 -314 -18
-325 -77 -325 -35 0 -40 -27 -6 -34 12 -3 85 -7 162 -11 77 -3 170 -8 207 -12
l66 -6 21 68 c12 37 18 71 15 76 -10 17 -31 9 -45 -17 -36 -68 -100 -89 -191
-63 l-38 10 0 99 0 100 58 0 c62 0 88 -13 94 -45 4 -26 35 -32 42 -8 3 10 6
50 7 88 3 80 -14 97 -43 45 -16 -29 -20 -30 -84 -30 l-67 0 7 96 c4 53 9 100
11 105 8 12 127 -1 152 -17 11 -7 26 -29 33 -49 8 -24 18 -35 31 -35 17 0 19
8 19 68 l0 69 -192 11 c-252 16 -250 16 -246 -5z"/>
<path d="M4760 10033 c-77 -4 -100 -11 -100 -28 0 -10 10 -15 29 -15 38 0 61
-23 62 -63 0 -18 6 -108 13 -202 7 -93 11 -178 8 -187 -2 -11 -21 -22 -44 -28
-54 -15 -44 -35 18 -34 66 1 378 16 381 18 6 5 29 146 25 151 -15 15 -34 0
-54 -41 -15 -33 -31 -50 -54 -60 -42 -18 -118 -18 -133 -1 -12 15 -34 313 -29
396 3 52 4 55 36 63 18 5 32 15 32 23 0 15 -40 17 -190 8z"/>
<path d="M4293 9988 c-10 -12 -89 -269 -129 -418 -23 -89 -40 -119 -69 -126
-16 -4 -25 -13 -25 -26 0 -17 5 -19 33 -14 17 3 62 8 100 12 56 6 67 10 67 25
0 13 -7 19 -24 19 -39 0 -46 18 -32 85 l12 60 54 7 c112 13 112 13 143 -42 32
-59 34 -77 7 -85 -11 -4 -20 -15 -20 -27 0 -17 5 -19 33 -14 17 3 74 8 125 12
81 6 92 9 92 25 0 12 -7 19 -19 19 -37 0 -64 39 -180 265 -119 232 -139 259
-168 223z m43 -242 l33 -71 -27 -6 c-50 -12 -104 -10 -100 4 3 6 13 44 23 84
10 40 23 69 28 66 5 -3 24 -38 43 -77z"/>
<path d="M6974 9990 c-12 -5 -67 -93 -148 -239 -71 -127 -136 -236 -146 -241
-10 -6 -28 -10 -39 -10 -14 0 -21 -6 -21 -19 0 -15 11 -19 77 -25 107 -9 123
-8 123 7 0 8 -11 19 -25 25 -31 14 -31 30 0 92 25 49 27 50 63 45 20 -2 58 -7
83 -10 46 -6 46 -6 57 -56 17 -73 15 -86 -13 -93 -38 -10 -31 -33 13 -40 138
-21 206 -26 214 -18 12 12 2 32 -16 32 -33 0 -52 50 -116 297 -36 141 -70 258
-75 259 -6 2 -19 -1 -31 -6z m-23 -232 c25 -99 26 -97 -23 -91 -95 10 -92 3
-45 92 23 44 43 78 45 76 2 -2 12 -36 23 -77z"/>
<path d="M3942 9945 c-46 -7 -86 -16 -89 -18 -10 -11 7 -25 37 -30 16 -4 30
-13 30 -20 0 -13 -34 -118 -59 -181 l-11 -28 -75 93 -75 94 30 14 c33 16 38
29 14 38 -14 5 -210 -22 -241 -34 -21 -8 -15 -33 8 -33 34 0 70 -28 138 -106
103 -119 113 -136 127 -225 7 -44 11 -86 8 -94 -3 -8 -21 -19 -40 -25 -34 -12
-43 -24 -24 -35 9 -5 160 14 253 31 37 8 36 34 -2 34 -42 0 -57 20 -70 93 -19
108 -15 138 35 252 45 102 86 155 120 155 8 0 14 9 14 20 0 23 -7 24 -128 5z"/>
<path d="M7332 9923 c2 -9 14 -20 27 -23 45 -10 46 -25 16 -231 -15 -107 -32
-204 -36 -216 -7 -19 -16 -23 -49 -23 -33 0 -40 -4 -40 -19 0 -15 10 -20 48
-25 26 -4 118 -19 204 -33 87 -14 163 -23 170 -20 7 3 24 33 37 67 33 86 17
100 -43 35 l-45 -48 -64 5 c-36 3 -70 9 -76 12 -17 11 -13 63 19 259 32 190
39 207 86 207 21 0 41 16 32 25 -5 5 -246 45 -271 45 -12 0 -17 -6 -15 -17z"/>
<path d="M7786 9878 c-7 -21 -36 -147 -36 -153 0 -3 8 -5 18 -5 9 1 29 19 44
40 26 37 31 40 75 40 100 0 96 18 46 -228 -29 -146 -48 -221 -59 -229 -8 -6
-29 -10 -45 -8 -23 3 -29 0 -29 -15 0 -11 2 -20 4 -20 2 0 58 -11 126 -25 68
-14 131 -25 141 -25 30 0 22 25 -13 41 -25 11 -34 21 -36 44 -3 28 72 413 82
423 3 2 23 1 46 -3 58 -10 90 -41 97 -93 4 -31 10 -42 23 -42 13 0 20 15 29
69 16 103 16 103 -21 96 -41 -8 -436 71 -459 91 -19 17 -29 18 -33 2z"/>
<path d="M3153 9820 c-161 -34 -264 -149 -264 -295 0 -205 195 -331 409 -266
81 24 159 87 194 155 29 57 35 159 14 223 -45 135 -200 215 -353 183z m97 -60
c133 -68 186 -333 85 -430 -46 -45 -120 -52 -180 -18 -82 48 -141 177 -133
293 9 139 117 212 228 155z"/>
<path d="M8370 9732 c0 -12 11 -24 31 -32 40 -17 41 -11 -26 -285 -20 -82 -41
-155 -47 -162 -5 -6 -24 -13 -41 -15 -19 -2 -33 -9 -35 -18 -4 -22 255 -84
263 -63 7 20 8 19 -25 33 -19 8 -30 20 -30 32 0 41 42 198 53 198 6 0 43 -9
81 -19 39 -11 90 -25 112 -30 l42 -11 -25 -93 c-14 -50 -30 -98 -35 -104 -6
-7 -25 -13 -43 -13 -46 0 -54 -26 -12 -39 155 -48 229 -64 237 -51 6 10 0 19
-21 32 -18 11 -29 26 -29 40 0 25 97 373 112 401 6 11 20 17 43 17 31 0 54 14
42 27 -9 8 -239 73 -259 73 -28 0 -21 -23 12 -42 18 -10 30 -25 30 -38 0 -25
-31 -142 -40 -153 -6 -7 -226 46 -237 57 -7 6 15 101 33 144 11 27 18 32 47
32 21 0 37 6 40 15 8 19 10 18 -123 49 -63 15 -123 29 -132 32 -13 4 -18 0
-18 -14z"/>
<path d="M2475 9645 c-192 -52 -220 -62 -223 -78 -3 -12 7 -17 40 -19 l43 -3
57 -195 c31 -107 57 -205 57 -217 1 -15 -9 -28 -29 -38 -32 -16 -39 -32 -17
-40 6 -3 66 10 132 28 129 36 155 58 80 67 -38 5 -41 7 -57 59 -10 30 -21 69
-24 88 -6 31 -4 33 21 33 21 0 47 -19 106 -74 88 -85 125 -101 210 -88 67 9
76 31 22 55 -21 9 -76 52 -123 96 l-85 79 26 28 c54 58 63 113 31 173 -40 74
-115 86 -267 46z m118 -59 c35 -33 52 -97 37 -142 -13 -38 -40 -61 -86 -70
l-31 -6 -26 99 c-38 142 -39 141 39 142 30 1 48 -5 67 -23z"/>
<path d="M2600 7971 l0 -48 65 -6 c105 -10 148 -42 165 -122 7 -35 10 -254 8
-666 -3 -565 -4 -617 -21 -646 -9 -18 -28 -40 -42 -49 -18 -12 -107 -33 -182
-44 -2 0 -3 -22 -3 -50 l0 -50 435 0 435 0 0 49 c0 55 1 54 -85 66 -65 9 -118
37 -135 72 -12 22 -16 86 -18 291 l-3 262 57 0 c81 0 133 -28 177 -93 19 -29
72 -115 117 -192 123 -208 165 -269 226 -324 99 -91 233 -133 464 -147 l117
-7 7 48 c4 26 6 48 4 49 -2 1 -25 12 -51 24 -71 33 -147 110 -250 252 -138
190 -327 486 -316 493 2 2 40 21 84 42 101 50 194 139 232 221 25 53 28 70 28
169 0 136 -22 198 -97 280 -81 89 -178 136 -328 161 -65 11 -206 14 -587 14
l-503 0 0 -49z m903 -81 c76 -28 130 -79 168 -156 29 -59 33 -77 37 -173 5
-129 -10 -191 -65 -271 -68 -97 -150 -133 -335 -145 l-88 -7 0 359 c0 377 0
377 45 401 35 20 178 14 238 -8z"/>
<path d="M6850 7966 l0 -53 75 -12 c97 -16 122 -36 136 -113 6 -37 9 -282 7
-680 -3 -717 2 -676 -91 -702 -28 -8 -65 -16 -82 -18 -29 -3 -30 -5 -33 -60
l-3 -58 416 0 416 0 -3 57 -3 58 -59 7 c-83 11 -127 35 -151 83 -18 37 -20 64
-23 343 l-4 302 302 0 302 0 -4 -302 c-3 -279 -5 -306 -23 -343 -24 -49 -67
-71 -155 -82 l-65 -8 -3 -57 -3 -58 426 0 426 0 -3 58 c-3 53 -5 57 -28 60
-74 7 -129 25 -151 48 l-24 26 -3 673 c-1 420 1 682 7 698 15 38 51 57 131 70
l70 11 0 53 0 53 -420 0 -420 0 0 -54 0 -54 58 -7 c81 -10 137 -37 159 -77 15
-29 18 -66 21 -285 l4 -253 -302 0 -302 0 4 248 c5 289 10 311 80 341 24 11
67 22 96 26 l52 7 0 54 0 54 -415 0 -415 0 0 -54z"/>
<path d="M5335 6614 c-44 -23 -66 -45 -81 -81 -32 -74 -6 -154 63 -198 18 -11
32 -27 33 -36 0 -17 -79 -401 -83 -406 -2 -1 -48 49 -104 113 l-101 115 15 47
c25 82 -2 153 -71 186 -68 32 -139 16 -189 -43 -61 -73 -35 -185 53 -229 25
-12 50 -29 56 -36 5 -8 57 -146 115 -306 l104 -292 70 6 c347 30 507 31 783 5
67 -7 124 -10 127 -7 3 2 54 137 113 299 102 276 110 295 143 316 68 44 89 65
100 103 37 124 -98 244 -210 185 -73 -37 -104 -113 -77 -190 l15 -47 -97 -113
c-53 -62 -98 -112 -100 -110 -2 2 -18 94 -36 205 l-33 201 48 49 c68 70 76
129 27 209 -24 38 -87 71 -138 71 -54 0 -111 -38 -137 -90 -30 -59 -29 -96 6
-161 l29 -54 -68 -205 c-78 -238 -60 -242 -151 30 l-59 174 25 36 c32 47 46
93 38 133 -18 103 -140 167 -228 121z"/>
<path d="M5295 5349 c-225 -22 -261 -53 -272 -230 l-6 -89 618 0 617 0 -4 98
c-6 164 -39 193 -244 217 -139 16 -565 19 -709 4z"/>
<path d="M3700 4680 c-201 -121 -344 -280 -446 -495 -92 -193 -125 -435 -90
-649 110 -667 775 -1088 1423 -900 276 80 512 265 661 519 40 68 102 213 102
238 0 6 -25 -16 -55 -50 -113 -126 -308 -247 -474 -292 -237 -65 -489 -44
-709 59 -266 125 -459 352 -549 645 -25 84 -27 101 -27 275 0 159 3 196 22
265 30 108 120 285 187 368 30 37 51 67 47 67 -5 0 -46 -22 -92 -50z"/>
<path d="M7015 4639 c-91 -14 -201 -43 -290 -78 -246 -95 -444 -286 -521 -503
-65 -183 -59 -451 13 -622 85 -202 272 -373 500 -456 199 -72 448 -96 678 -66
196 26 431 79 426 97 -2 8 -6 127 -8 264 -6 330 -7 328 130 369 13 4 17 16 17
51 l0 45 -406 0 -405 0 3 -47 3 -48 77 -8 c98 -9 165 -34 192 -70 19 -26 21
-44 24 -216 4 -217 -3 -259 -51 -295 -68 -52 -242 -55 -387 -6 -243 82 -405
324 -440 658 -11 102 0 245 26 344 79 305 339 505 629 484 248 -18 421 -151
476 -365 12 -48 13 -50 43 -44 77 15 74 6 60 150 -7 70 -16 167 -20 216 -4 48
-7 87 -8 87 -1 0 -68 14 -151 31 -131 26 -176 31 -350 34 -110 2 -227 0 -260
-6z"/>
</g>
</svg>
