<svg id="Layer_1" data-name="Layer 1" xmlns="http://www.w3.org/2000/svg" viewBox="0 0 87.93 109.93"><defs><style>.cls-1{fill:#fff;}</style></defs><title>slider-logo</title><path class="cls-1" d="M90.82,10.54c0,.36-.12.72-.12,1-.12,1.56-.24,3-.36,4.57-.12,1.8-.24,3.61-.36,5.29s-.24,3-.36,4.57-.24,3-.36,4.57c-.12,1.2-.12,2.41-.24,3.73l-.36,4.69c-.12,1.2-.12,2.41-.24,3.61s-.24,2.65-.24,3.85-.12,2.41-.24,3.61-.12,2.53-.24,3.85-.12,2.41-.24,3.61l-.36,4.69c-.12,1.2-.12,2.41-.24,3.61s-.12,2.53-.24,3.85c-.12,1-.12,1.92-.24,3a21.78,21.78,0,0,1-1.44,6.74,45.14,45.14,0,0,1-6.86,11.91A60.35,60.35,0,0,1,66.64,102,101.79,101.79,0,0,1,52.8,110.5c-1.68.84-3.37,1.8-4.93,2.65-.36.12-.6.24-1,0a112,112,0,0,1-20.45-11.91,74.79,74.79,0,0,1-8.18-6.86A42.76,42.76,0,0,1,8.06,77.9a21.69,21.69,0,0,1-1-4.69C7,71,6.73,69,6.61,66.84l-.36-4.69c-.12-1.8-.24-3.73-.36-5.53l-.36-4.69-.36-4.69C5,46,5,44.7,4.93,43.5s-.12-2.65-.24-4S4.57,37,4.45,35.68s-.12-2.65-.24-4S4.09,29.18,4,27.86s-.12-2.65-.24-4S3.6,21.37,3.48,20s-.12-2.53-.24-3.85S3.12,13.67,3,12.46c0-.72-.12-1.44-.12-2V9.7H3c4.09-1.2,8.06-2.29,12.27-3.13,2.41-.48,4.81-1,7.22-1.32C24.17,5,26,4.76,27.78,4.52S31.15,4.16,33,4L38,3.68c1.68-.12,3.25-.12,4.93-.24,3.85-.12,7.82-.12,11.67.12,2.41.12,4.81.36,7.22.6,1.92.12,3.73.36,5.65.6,2.41.36,4.93.72,7.34,1.2,4.33.72,8.54,1.8,12.75,2.89,1.08.24,2,.6,3.13.84A2.35,2.35,0,0,1,90.82,10.54ZM46.19,8.85C43.54,9,41,9,38.49,9.1c-1.56.12-3.13.12-4.69.36s-3.25.36-4.93.48l-5.41.72c-2,.36-4.09.6-6.13,1.08-3,.6-6,1.32-9,2-.12,0-.12.12-.12.24a29.49,29.49,0,0,0,.24,3.25c.12,1.56.24,3,.36,4.57.12,1.2.12,2.41.24,3.61.12,1.56.24,3,.36,4.57.12,1.2.12,2.41.24,3.61L10,38.33c.12,1.2.12,2.41.24,3.61s.24,2.53.24,3.85.12,2.41.24,3.61c.12,1.56.24,3,.36,4.57.12,1.2.12,2.41.24,3.61.12,1.56.24,3,.36,4.57s.24,3,.36,4.45.24,3,.36,4.57c.12,1.2.24,2.41.48,3.61a29.65,29.65,0,0,0,2.65,7.1,41.69,41.69,0,0,0,5.29,7.7,48.36,48.36,0,0,0,6.26,5.89,98,98,0,0,0,9.14,6.62A60.85,60.85,0,0,0,46.79,108a1.68,1.68,0,0,0,1.32,0A115.71,115.71,0,0,0,68,94.86a43.68,43.68,0,0,0,7.58-8.06,46.28,46.28,0,0,0,4.33-7.46,32.9,32.9,0,0,0,2-10.22c.12-1.2.12-2.29.24-3.49.12-1.56.24-3,.36-4.57.12-1.2.12-2.41.24-3.61s.12-2.53.24-3.85.12-2.41.24-3.61.12-2.53.24-3.85.12-2.41.24-3.73.12-2.53.24-3.85.12-2.41.24-3.73.24-3,.36-4.45c.12-1.2.12-2.41.24-3.61.12-1.44.24-3,.36-4.45.12-1.2.12-2.29.24-3.49.12-1.44.24-3,.36-4.45,0-.12,0-.24-.24-.24-1.56-.36-3.13-.84-4.69-1.08-2.77-.6-5.65-1.2-8.42-1.68-2.17-.36-4.45-.72-6.62-1-1.92-.24-4-.48-5.89-.6l-5.77-.36A47.62,47.62,0,0,0,46.19,8.85Z" transform="translate(-2.88 -3.36)"/><path class="cls-1" d="M22.85,88.85h2.53a4.93,4.93,0,0,1-.12-1.32,2.17,2.17,0,0,1,1.08-1.92,1.71,1.71,0,0,1,.72-.24h3.25A7.1,7.1,0,0,0,32,85.12c.84-.24,1.8-.6,2.65-.84.24-.12.48,0,.48.24a.44.44,0,0,1-.24.6c-.72.24-1.44.48-2.29.72-.48.12-.84.24-1.32.36H27.18a1.21,1.21,0,0,0-1.2,1.2,2.83,2.83,0,0,0,.24,1,.66.66,0,0,0,.72.48h8.42a3.25,3.25,0,0,0,3.13-2.29,3,3,0,0,0-.6-2.77,2.85,2.85,0,0,0-1.8-1.08c-.24,0-.48-.12-.72-.12h-7.7a1.09,1.09,0,0,1-1-.48,6,6,0,0,0-.84-1,13.17,13.17,0,0,0-1.2-1.32c.48-.12,1-.36,1.44-.48-.12-.24-.24-.36-.36-.6-.24.12-.36.12-.6.24a1,1,0,0,1-1.32-.84,1.14,1.14,0,0,1,.6-1.32.62.62,0,0,1-.24-.48c-.12-.12-.12-.12-.24,0a2.32,2.32,0,0,0-.6,2.29H16.48c-.24,0-.24,0-.36-.24a28.13,28.13,0,0,1-1.68-7c-.12-1.92-.36-3.85-.48-5.89-.12-2.29-.36-4.57-.48-6.86-.12-2-.24-4-.36-6s-.36-4-.48-6-.24-4.09-.48-6.13-.24-4.09-.48-6-.24-3.49-.36-5.29-.24-3.49-.36-5.17c-.12-1.44-.24-2.89-.36-4.45-.12-1.2-.12-2.41-.24-3.61v-.72a144.87,144.87,0,0,1,73.14,0,6.86,6.86,0,0,1-.12,1.56c-.12,1.2-.12,2.41-.24,3.61-.12,1.44-.24,3-.36,4.45-.12,1.2-.12,2.29-.24,3.49-.12,1.56-.24,3-.36,4.57-.12,1.2-.12,2.41-.24,3.49-.12,1.56-.24,3-.36,4.57-.12,1.2-.12,2.41-.24,3.61-.12,1.56-.24,3-.36,4.57-.12,1.2-.12,2.29-.24,3.49-.12,1.56-.24,3-.36,4.57-.12,1.2-.12,2.29-.24,3.49-.12,1.56-.24,3-.36,4.57a34,34,0,0,0-.24,3.49,28.64,28.64,0,0,1-6.13,17,44.61,44.61,0,0,1-6.62,6.86A91.42,91.42,0,0,1,53,102.68a34,34,0,0,1-5.53,2.77,2.47,2.47,0,0,1-1.32,0,43.8,43.8,0,0,1-8.42-4.57,109.9,109.9,0,0,1-11.19-8.54,33.75,33.75,0,0,1-3.73-3.49C22.73,89,22.85,89,22.85,88.85Zm49-2.89.12-.12a28.42,28.42,0,0,0,3.37-5.05,23.16,23.16,0,0,0,2.77-8.42c.24-2,.36-4.09.48-6.13l.36-5.41c0-.48.12-1.08.12-1.68H57.38c0,.6-.12,1.08-.12,1.68S57.14,62.26,57,63a9.56,9.56,0,0,1-2.53,4.57,21.81,21.81,0,0,1-4.93,3.85c-1,.48-1.8,1-2.77,1.56v31.52a.42.42,0,0,0,.24-.12,49.46,49.46,0,0,0,5.05-2.53,68.72,68.72,0,0,0,8.66-5.89,76.21,76.21,0,0,0,9.38-8.18A11.55,11.55,0,0,0,71.81,86Zm-24.3-63V43.62h.24A23.85,23.85,0,0,1,52,44c2,.36,4.09.84,6.13,1.32.24,0,.24.12.24.36-.12,1.56-.24,3-.36,4.57-.12,2-.24,4.09-.48,6.26a4.51,4.51,0,0,1-.12,1.2H78.79a.32.32,0,0,0,.36-.36c.12-1.2.12-2.41.24-3.61.12-2,.24-4,.48-6s.24-4.09.48-6c.12-2.29.36-4.57.48-6.86s.36-4.33.48-6.5V27.5A145.71,145.71,0,0,0,47.51,22.93ZM46.07,23h-.36a26.16,26.16,0,0,0-3.13.12c-1.8.12-3.49.12-5.29.36s-3.37.36-5.05.48-3.37.36-5.05.6L20.57,25.7l-8.18,1.8a.26.26,0,0,0-.24.24c.12,2.29.36,4.45.48,6.74s.36,4.81.48,7.34.36,4.81.48,7.34.36,5.05.48,7.7a2.65,2.65,0,0,0,.12,1H35.84v-.12c-.12-1.32-.12-2.65-.24-4.09s-.24-2.53-.24-3.85-.12-2.65-.24-4.09c0-.12,0-.24.24-.24a37.14,37.14,0,0,1,10.35-1.56h.36C46.07,36.76,46.07,29.91,46.07,23Zm36.09-6.74a142.27,142.27,0,0,0-70.73,0c.24,3.25.48,6.62.72,10a7.67,7.67,0,0,0,.84-.24c4.45-1.08,8.78-1.92,13.35-2.65,2-.36,4.21-.6,6.26-.84,1.8-.24,3.49-.36,5.29-.48l6.74-.36a85.07,85.07,0,0,1,11.07.36c2.29.24,4.69.36,7,.72s4.81.6,7.22,1.08c3.49.6,6.86,1.44,10.35,2,.36.12.72.12,1.2.24C81.67,22.93,81.92,19.68,82.16,16.31ZM36.56,46.51v.72c.12,1.56.24,3,.36,4.57.12,1.2.12,2.41.24,3.61l.36,4.69a16.44,16.44,0,0,0,.24,2.29,7.46,7.46,0,0,0,1.44,3.13A14.18,14.18,0,0,0,42.82,69a20.32,20.32,0,0,0,3.85,2.29.37.37,0,0,0,.48,0,27.35,27.35,0,0,0,5.77-4,8.28,8.28,0,0,0,2.77-4.45c.24-1.2.24-2.53.36-3.73s.12-2.41.24-3.61l.36-4.69c.12-1.2.12-2.41.24-3.61,0-.24,0-.36-.24-.48a38.17,38.17,0,0,0-9-1.44,35,35,0,0,0-6.13.36A35.23,35.23,0,0,0,36.56,46.51ZM26.1,79.35a8.09,8.09,0,0,1,.84,1.32.62.62,0,0,0,.48.24h3.85c.36,0,.48-.12.48-.48V70a1.08,1.08,0,0,0-.12-.6,1.81,1.81,0,0,0-1.8-1.44h-1.2c-1.56,0-3.13,0-4.81.12-.12,0-.24.12-.36.24-.24.36-.48.6-.72,1l-3.25,4.69c-.6,1-1.32,1.8-1.92,2.77a.37.37,0,0,0,0,.48c0,.12.24.24.36.24H21c.12,0,.36-.12.36-.24.6-1,1.32-1.8,1.92-2.77l.12-.12c.12.6-.12,1.32.24,1.92.84-.48,1.8-.84,2.65-1.32.12,0,.12-.12.12-.24.24-.84.6-1.56.84-2.41,0-.12.24-.24.36-.36.36-.12.48.24.36.6-.36.84-.6,1.8-1,2.65,0,.12-.24.24-.36.36-.84.48-1.68.84-2.53,1.32.48.6.84,1.32,1.32,1.92.6-.36,1.2-.6,1.8-1,.24-.12.6-.24.84-.36s.36-.12.48-.24c.48-1.2.84-2.29,1.32-3.49.24-.6.48-1.32.72-1.92.12-.12.24-.24.36-.24s.36.12.24.36a1.71,1.71,0,0,1-.24.72c-.6,1.68-1.2,3.25-1.92,4.93-.12.24-.24.48-.48.48a22.43,22.43,0,0,0-2.41,1.2C26.46,79.23,26.34,79.35,26.1,79.35Zm.84-12.51a3.23,3.23,0,0,0,3.25-3.25,3.32,3.32,0,0,0-3.13-3.37,3.25,3.25,0,0,0-3.49,3.37A3.42,3.42,0,0,0,26.94,66.84Zm15.4,13.59A3.26,3.26,0,0,0,39,83.68a3.13,3.13,0,0,0,3.13,3.25,3.25,3.25,0,1,0,.24-6.5Z" transform="translate(-2.88 -3.36)"/><path class="cls-1" d="M24.05,84.88c-.48,0-1,.12-1.32.12-.84.12-1.56.12-2.41.24-.36,0-.6,0-.84-.36-.72-1.2-1.44-2.29-2.17-3.37,0-.12-.12-.12-.12-.24h3.61a.86.86,0,0,1,.72.36c.6.84,1.32,1.68,1.92,2.53A3.19,3.19,0,0,0,24.05,84.88Z" transform="translate(-2.88 -3.36)"/><path class="cls-1" d="M71.81,86a15.22,15.22,0,0,1-3.37-.36,4.47,4.47,0,0,1-2.89-1.92c-.6-1-1.2-1.92-1.68-2.89a10.58,10.58,0,0,1-.72-1.2,2,2,0,0,0-2.53-1.2v3.85a4.09,4.09,0,0,0,.12,1.2,1.29,1.29,0,0,0,1,1.08c.36.12.72.12,1.08.24A.26.26,0,0,1,63,85v.72H54.61v-1c.36-.12.84-.12,1.2-.24a1.21,1.21,0,0,0,1.08-1.32V71.53a1.53,1.53,0,0,0-.12-.72,1.32,1.32,0,0,0-1.32-1.2c-.24,0-.6-.12-.84-.12v-1h9a6.92,6.92,0,0,1,3.13.6,4.13,4.13,0,0,1,2.53,3.37,3.8,3.8,0,0,1-1.8,4c-.48.36-1.08.6-1.56,1v.12a63.6,63.6,0,0,0,3.85,6,5,5,0,0,0,2.17,1.68,4.25,4.25,0,0,0-.12.72ZM60.5,77.18h1.56a3.35,3.35,0,0,0,3.13-2.53,4.51,4.51,0,0,0,0-2.53,3.28,3.28,0,0,0-3.49-2.65c-1,.12-1.2.36-1.2,1.32v6.38Z" transform="translate(-2.88 -3.36)"/><path class="cls-1" d="M58.94,33.39H67v1.08c-.36,0-.6.12-1,.12-.84.12-1.2.48-1.2,1.32A27.19,27.19,0,0,1,64.71,39v1.56h5.77V36c0-1-.48-1.32-1.44-1.44a1.53,1.53,0,0,1-.72-.12V33.39h8.06v1a.42.42,0,0,1-.24.12,2.65,2.65,0,0,1-1,.12.92.92,0,0,0-.84,1V47.47a4.09,4.09,0,0,0,.12,1.2.9.9,0,0,0,.72.84,2.65,2.65,0,0,0,1,.12.32.32,0,0,1,.36.36v.84H68.2v-1a.42.42,0,0,1,.24-.12c.36,0,.6-.12,1-.12.84-.12,1.2-.48,1.2-1.32,0-1.92,0-3.85.12-5.77v-.12H65v5.05a2,2,0,0,0,.12.84c.12.84.48,1.2,1.44,1.32.24,0,.48.12.84.12v1.08H59.3v-1a.42.42,0,0,1,.24-.12c.24,0,.6-.12.84-.12a1.15,1.15,0,0,0,1-1c0-.24.12-.6.12-.84V36.64a2.35,2.35,0,0,0-.12-1,1,1,0,0,0-.84-.84,3.33,3.33,0,0,0-1.08-.12.26.26,0,0,1-.24-.24A2,2,0,0,1,58.94,33.39Z" transform="translate(-2.88 -3.36)"/><path class="cls-1" d="M16.48,33.88v-.72A.12.12,0,0,1,16.6,33h7.82a10.59,10.59,0,0,1,3.85.48,4.22,4.22,0,0,1,2,6.5A6.28,6.28,0,0,1,28,41.69c-.12,0-.24.12-.36.12v.12a43,43,0,0,0,4.09,6.26,3.93,3.93,0,0,0,1.8,1.32h.12a1.53,1.53,0,0,1-.12.72c0,.12-.12.12-.24.12a12.05,12.05,0,0,1-4.09-.6,4,4,0,0,1-2.17-1.8c-.84-1.32-1.56-2.53-2.29-3.85-.12-.12-.12-.24-.24-.36a1.88,1.88,0,0,0-1.8-1h-.48v4.57a1.53,1.53,0,0,0,.12.72,1.28,1.28,0,0,0,1.08,1.08c.36.12.84.12,1.2.24v1H16.24v-1c.36,0,.72-.12,1.08-.12,1-.24,1.32-.6,1.32-1.56V36.88a5.86,5.86,0,0,0-.12-1.44,1.29,1.29,0,0,0-1-1.08A1.17,1.17,0,0,0,16.48,33.88Zm6,7.82a9.1,9.1,0,0,0,1.8-.12,3,3,0,0,0,2.65-2,3.77,3.77,0,0,0,.24-2.29A3.19,3.19,0,0,0,23.57,34c-1.08.12-1.2.36-1.2,1.2v6.13A.44.44,0,0,1,22.49,41.69Z" transform="translate(-2.88 -3.36)"/><path class="cls-1" d="M80.59,18.6c0,.12,0,.24-.12.24h-.24c-.6,0-.6,0-.72.48-.36,1.08-.6,2.17-1,3.25-.12.6-.12.6.48,1,0,.12,0,.12-.12.24-.84-.24-1.68-.48-2.65-.72,0-.12,0-.24.12-.24.72.12.72.12,1-.72l.36-1.44A23.39,23.39,0,0,0,75.3,20c-.12.6-.36,1.32-.48,1.92a.62.62,0,0,0,.24.48c.12,0,.12.12.24.12s0,.24-.12.24c-.84-.24-1.68-.36-2.53-.6V22h.12c.72.12.72-.12.84-.6.24-1,.48-2,.72-3,.24-.72.12-.84-.6-1.08,0-.12,0-.12.12-.24a21,21,0,0,0,2.65.6c0,.12,0,.24-.12.24h-.12c-.6-.12-.72,0-.84.6a4.27,4.27,0,0,0-.24,1.2v.12c.72.24,1.56.36,2.41.6.12-.6.24-1.08.36-1.68,0-.12-.12-.24-.24-.36.36-.12.24-.12.12-.12s0-.12.12-.36C78.79,18.12,79.63,18.36,80.59,18.6Z" transform="translate(-2.88 -3.36)"/><path class="cls-1" d="M51,19.08v.24H48.35V19c.72-.12.72-.12.72-1V16.55H46.55v1.92a.32.32,0,0,0,.36.36.44.44,0,0,1,.36.12v.24H44.62V19h0c.6-.12.6-.12.6-.72V14.87c0-.72,0-.72-.84-.84v-.24h2.77V14c-.72.12-.72.12-.72.84v1.2H49V14.39a.32.32,0,0,0-.36-.36.44.44,0,0,1-.36-.12v-.24H51v.24h0c-.72.12-.72.12-.72.84a26.16,26.16,0,0,1-.12,3.13C50.28,19,50.28,19,51,19.08Z" transform="translate(-2.88 -3.36)"/><path class="cls-1" d="M17.32,20.52c.72.6,1.32,1.56,2.41,1.92.12.24,0,.24-.24.36s-.48.12-.72.12a1.68,1.68,0,0,1-1.08-.36L16.6,21.49a.71.71,0,0,0-.84-.12,6.78,6.78,0,0,0,.48,1.44c.12.24.24.36.48.24h.36c0,.12,0,.12.12.24L14.67,24a.42.42,0,0,0-.12-.24c.72-.36.72-.36.48-1.2s-.6-1.92-.84-2.89c-.24-.72-.24-.72-1-.72,0-.12,0-.12-.12-.24h.12c1.08-.24,2-.6,3.13-.84.24-.12.6,0,1,0A1.37,1.37,0,0,1,18,20C17.56,20.16,17.44,20.28,17.32,20.52Zm-1.56-2.29a.44.44,0,0,0-.36.12c-.36.12-.48.24-.36.6l.36,1.44c.12.48.12.48.72.36a1.13,1.13,0,0,0,.72-1,1.63,1.63,0,0,0-.72-1.32C16,18.24,15.87,18.24,15.75,18.24Z" transform="translate(-2.88 -3.36)"/><path class="cls-1" d="M25.62,19a3,3,0,0,1-2.41,2.89,3.11,3.11,0,0,1-2.89-.6A2.73,2.73,0,0,1,20.21,17a3.59,3.59,0,0,1,3.25-.84A2.7,2.7,0,0,1,25.62,19Zm-5.05-.36a2.35,2.35,0,0,0,.12.84,2.72,2.72,0,0,0,1.2,1.8,1.55,1.55,0,0,0,2.41-.84,2,2,0,0,0,0-1.2,3.41,3.41,0,0,0-.72-1.92,1.58,1.58,0,0,0-2.53,0A2.52,2.52,0,0,0,20.57,18.6Z" transform="translate(-2.88 -3.36)"/><path class="cls-1" d="M56.29,15.47h-.36c-.24-.84-.36-1-1.32-1-.6,0-.6,0-.72.6s-.12,1-.12,1.44H55c.24,0,.36-.24.48-.48V16h.36c0,.6-.12,1.2-.12,1.68h-.36V17.4a.52.52,0,0,0-.48-.48,3.71,3.71,0,0,1-1.08-.12,10.27,10.27,0,0,0,0,1.92c0,.12.24.24.36.24a2.65,2.65,0,0,0,1,.12,1.09,1.09,0,0,0,1-.48c.12-.12.24-.36.36-.48a.44.44,0,0,1,.36.12c-.12.48-.24.84-.36,1.32a.42.42,0,0,1-.24.12c-.6,0-1.08-.12-1.68-.12s-1.56-.12-2.29-.12H52V19.2h0c.72-.12.72-.12.84-.84,0-1.08.12-2.17.12-3.25,0-.72,0-.72-.72-.84V14H53c1.08.12,2.17.12,3.37.24.24,0,.24,0,.24.24A1,1,0,0,0,56.29,15.47Z" transform="translate(-2.88 -3.36)"/><path class="cls-1" d="M58.58,19.68V20c-.6-.12-1.32-.12-1.92-.24v-.36c.6.12.84-.36,1.08-.72.72-1.32,1.44-2.53,2-3.85a.58.58,0,0,1,.72-.36c.12.6.36,1.2.48,1.8l.72,2.89c.12.6.24.72.84,1v.24L60,20c0-.24,0-.36.24-.36s.36-.12.24-.36-.12-.6-.24-1c0-.12-.12-.12-.24-.24A5.39,5.39,0,0,0,58.7,18a.42.42,0,0,0-.24.12l-.36.72c-.12.36-.12.48.24.6Zm1.56-1.8c-.12-.6-.36-1.2-.48-1.92-.36.6-.6,1.2-1,1.8A5.39,5.39,0,0,1,60.14,17.88Z" transform="translate(-2.88 -3.36)"/><path class="cls-1" d="M33.08,19.8v.36c-.6.12-1.32.12-1.92.24V20c.6,0,.72-.48.84-.84.36-1.44.84-2.89,1.2-4.21.12-.36.24-.48.6-.48a11.18,11.18,0,0,1,.6,1.2c.6,1.08,1.08,2.17,1.68,3.25a1.07,1.07,0,0,0,1,.6v.36c-.84.12-1.68.12-2.53.24,0-.12,0-.12-.12-.24V19.8c.6-.36.6-.36.36-.84,0-.12-.12-.24-.12-.36-.24-.48-.24-.48-.72-.36s-.6.12-1,.12-.24.12-.36.24-.12.48-.12.72,0,.48.36.48Zm1.08-2c-.24-.6-.6-1.08-.84-1.8a15,15,0,0,0-.48,1.92C33.2,17.88,33.68,17.76,34.16,17.76Z" transform="translate(-2.88 -3.36)"/><path class="cls-1" d="M70.13,16.55c-.24,0-.6-.12-.84-.12a.83.83,0,0,0-1,.6c-.12.24-.24.24-.48.12.12-.48.24-1.08.36-1.56h.24a2.14,2.14,0,0,0,1.2.48c1,.24,1.92.36,3,.6h.84c-.12.6-.12,1.08-.24,1.68h-.36c-.24-1.2-.24-1.2-1.56-1.44-.12.48-.24,1.08-.36,1.56-.12.84-.36,1.56-.48,2.41-.12.48,0,.6.48.84.12,0,.12,0,.24.12s0,.24-.12.24c-1-.24-1.92-.36-2.77-.6v-.24h.12c.6,0,.72,0,.84-.6C69.65,19.2,69.89,17.88,70.13,16.55Z" transform="translate(-2.88 -3.36)"/><path class="cls-1" d="M27.66,20.88v-.24h.12c.72-.24.72-.24.6-1v-.36a2.39,2.39,0,0,0-.72-1.56c-.36-.48-.72-.84-1.08-1.32a1,1,0,0,0-.72-.36c-.24,0-.24-.12-.24-.36a18.68,18.68,0,0,0,2.53-.48c0,.12,0,.24.12.24h0c-.84.36-.84.36-.48.84A12.74,12.74,0,0,0,29,17.76c.24-.72.48-1.32.72-1.92.12-.24,0-.36-.24-.36h-.36v-.36a13.26,13.26,0,0,1,2.17-.24v.36a1.47,1.47,0,0,0-1.08,1,4.27,4.27,0,0,1-.48,1.08,2.71,2.71,0,0,0-.24,1.92c0,.24.12.36.12.6s.24.48.6.48h.36v.24C29.47,20.64,28.63,20.76,27.66,20.88Z" transform="translate(-2.88 -3.36)"/><path class="cls-1" d="M67.48,19.68c.12,0,.12.12.24.12-.24.48-.36.84-.6,1.32l-.12.12c-1.32-.24-2.65-.48-4-.6h-.12V20.4h.36c.48,0,.6-.12.6-.6.12-1.08.36-2.29.48-3.37.12-.6,0-.72-.48-.84-.24-.12-.12-.12-.12-.36l2.77.36c0,.24,0,.36-.24.36-.48,0-.6.12-.6.48-.12,1-.36,2-.48,3a5.21,5.21,0,0,1-.12.6c0,.24,0,.48.36.48s.6.12.84.12a1.09,1.09,0,0,0,.84-.36A.66.66,0,0,1,67.48,19.68Z" transform="translate(-2.88 -3.36)"/><path class="cls-1" d="M37,14.51v-.24h.12c.84,0,1.68-.12,2.65-.12v.24h-.12c-.48.12-.6.24-.6.84.12,1.08.12,2.29.24,3.37,0,.48.12.6.6.6h.12a1.21,1.21,0,0,0,1.32-.84c0-.12.12-.24.12-.36a.44.44,0,0,1,.36.12c-.12.48-.12,1-.24,1.32,0,.12-.12.12-.24.12-.72,0-1.56.12-2.29.12-.48,0-.84.12-1.32.12h-.48c-.12-.24-.12-.24.12-.36.6-.12.6-.24.6-.72-.12-1.2-.12-2.29-.24-3.49,0-.36-.12-.48-.6-.6C37.29,14.51,37.17,14.51,37,14.51Z" transform="translate(-2.88 -3.36)"/><path class="cls-1" d="M43.06,55.41c.24-1.44.6-2.77.84-4.09-.24-.24-.6-.48-.84-.72a1.44,1.44,0,0,1-.12-1.8,1.76,1.76,0,0,1,1.56-.72,1.53,1.53,0,0,1,1.32,1.32,1.36,1.36,0,0,1-.36,1.32.71.71,0,0,0-.12.84c.36,1.08.72,2.17,1.2,3.37,0,.12.12.24.12.36.24-.6.36-1.2.6-1.68.24-.72.48-1.44.72-2a.71.71,0,0,0-.12-.84,1.54,1.54,0,0,1-.24-1.44,1.64,1.64,0,0,1,1.44-1.2,1.55,1.55,0,0,1,1.56,1.08,1.53,1.53,0,0,1-.48,1.8.76.76,0,0,0-.36,1c.24,1.2.36,2.41.6,3.49h.12c.36-.36.6-.72,1-1.08a6,6,0,0,1,.84-1,.53.53,0,0,0,.12-.6,1.46,1.46,0,0,1,.24-1.68,1.57,1.57,0,0,1,2.65,1,1.63,1.63,0,0,1-.84,1.56,1.08,1.08,0,0,0-.72.72c-.6,1.68-1.2,3.37-1.92,5.17-.12.36-.12.48-.6.36a21.48,21.48,0,0,0-2.77-.24H45.35c-.72,0-1.32.12-2,.12-.36,0-.72.12-1.08.12s-.36,0-.36-.24c-.6-1.8-1.32-3.49-1.92-5.29a1.08,1.08,0,0,0-.72-.72,1.53,1.53,0,0,1-.84-1.68,1.43,1.43,0,0,1,1.44-1.2,1.47,1.47,0,0,1,1.44,2,.71.71,0,0,0,.12.84,20.91,20.91,0,0,1,1.56,1.8Z" transform="translate(-2.88 -3.36)"/><path class="cls-1" d="M40.65,64.55c.12-.6.12-1.32.24-1.92a1.15,1.15,0,0,1,1-1,11.85,11.85,0,0,1,2-.24A28.25,28.25,0,0,1,47,61.3a26.3,26.3,0,0,1,4.33.36c1.2.12,1.32.84,1.44,1.68v1.32C48.83,64.55,44.74,64.55,40.65,64.55Z" transform="translate(-2.88 -3.36)"/></svg>